<?xml version="1.0"?>
<svg xmlns="http://www.w3.org/2000/svg" xmlns:xlink="http://www.w3.org/1999/xlink" width="216" height="197.957" viewBox="0 0 216 197.957">
<g>
	<g>
		<path fill="#FFFFFF" d="M38.262,4.078v119.688l69.856,44.034l69.856-44.034V4.078H38.262z M172.819,121.858l-64.701,40.786
			l-64.701-40.786V6.773h129.401V121.858z"/>
		<path fill="#FFFFFF" d="M170.463,120.56V9.13H45.773v111.43l62.345,39.302L170.463,120.56z M145.796,42.331h2.243
			c0,0,2.494,8.538,8.609,8.538c1.355,0,4.904-0.512,4.904-5.678c0-8.381-15.355-6.924-15.355-20.741
			c0-8.232,4.564-11.74,10.062-11.74c3.818,0,6.081,1.892,7.04,1.892c0.984,0,0.996-1.892,0.996-1.892h2.369v11.018h-2.369
			c0,0-2.436-7.998-8.036-7.998c-2.368,0-4.117,1.833-4.117,4.713c0,9.199,15.803,6.528,15.803,21.144
			c0,8.937-6.392,12.302-11.296,12.302c-4.902,0-6.324-1.854-7.643-1.854c-0.791,0-0.967,1.854-0.967,1.854h-2.243V42.331z
			 M131.055,12.71c3.621,0,6.063,2.76,7.012,2.76c0.72,0,1.164-2.76,1.164-2.76h1.998v14.524h-1.998c0,0-2.604-11.505-7.839-11.505
			c-3.696,0-5.682,5.479-5.682,17.571c0,16.072,3.816,17.568,6.278,17.568c2.354,0,2.918-1.296,2.918-3.368v-6.025
			c0-3.483-2.099-3.483-3.515-3.483v-2.51h13.355v2.51c-1.414,0-3.079,0-3.079,3.483v12.412h-3.752v-1.416
			c0,0-3.01,1.416-6.861,1.416c-5.561,0-13.244-5.731-13.244-20.587S125.495,12.71,131.055,12.71z M91.247,50.426
			c1.416,0,3.34,0,3.34-3.481V19.656c0-3.481-1.924-3.481-3.34-3.481v-2.51h8.819l11.575,24.985V19.656
			c0-3.481-1.924-3.481-3.342-3.481v-2.51h9.426v2.51c-1.414,0-3.34,0-3.34,3.481v33.277h-6.652L97.332,30.484v16.46
			c0,3.481,1.926,3.481,3.342,3.481v2.508h-9.426V50.426z M76.59,50.426c1.417,0,3.344,0,3.344-3.481V19.656
			c0-3.481-1.926-3.481-3.344-3.481v-2.51H90.32v2.51c-1.417,0-3.342,0-3.342,3.481v27.288c0,3.481,1.924,3.481,3.342,3.481v2.508
			H76.59V50.426z M48.293,50.426c1.416,0,3.34,0,3.34-3.481V19.656c0-3.481-1.924-3.481-3.34-3.481v-2.51h13.729v2.51
			c-1.417,0-3.344,0-3.344,3.481v11.15l7.521-11.879c1.74-2.753-1.432-2.753-2.713-2.753v-2.51h11.539v2.51c0,0-2.714,0-4.458,2.753
			l-7.862,12.42c3.333,0.041,10.766,2.04,11.356,10.893l0.856,12.811c0.242,3.643,3.244,5.657,6.458,5.657h5.86v3.331h-6.634
			c-11.6,0-13.16-6.066-13.824-11.541l-1.291-10.612c-0.68-5.625-3.494-6.772-6.809-6.772v11.831c0,3.481,1.926,3.481,3.344,3.481
			v2.508H48.293V50.426z M71.839,132.714c0-1.006,0.478-1.908,1.23-2.464c1.119-0.826,3.822-3.211,2.882-6.112h-1.358
			c-1.441,0-2.614-1.173-2.614-2.612c0-0.635,0.229-1.217,0.607-1.672l-4.366-5.991c-0.505,0.228-1.063,0.36-1.656,0.36
			c-2.232,0-4.039-1.807-4.039-4.042c0-1.395,0.707-2.621,1.781-3.346c-0.351-1.16-1.139-4.047-1.258-6.818
			c-1.609-0.304-2.834-1.715-2.834-3.423c0-1.836,1.439-3.336,3.244-3.465l0.25-0.995c-1.278-0.586-2.169-1.873-2.169-3.376
			c0-2.041,1.65-3.709,3.706-3.709c0.505,0,0.984,0.104,1.421,0.286l0.324-0.483c-0.474-0.596-0.771-1.343-0.771-2.162
			c0-1.93,1.568-3.492,3.485-3.492c0.664,0,1.276,0.194,1.802,0.514l1.3-1.11c0-0.003-0.003-0.009-0.003-0.014
			c0-1.923,1.568-3.491,3.498-3.491c0.419,0,0.82,0.086,1.192,0.223l1.471-0.836c0.041-1.606,1.353-2.9,2.973-2.9
			c0.659,0,1.266,0.222,1.76,0.585l1.468-0.624c0.244-1.149,1.26-2.011,2.481-2.011c0.582,0,1.113,0.204,1.543,0.534l1.668-0.545
			c0.17-0.991,1.024-1.747,2.06-1.747c0.628,0,1.185,0.283,1.57,0.72l1.334-0.357c0.134-1.028,1.011-1.826,2.071-1.826
			c0.749,0,1.396,0.387,1.772,0.967l1.117-0.233c0-0.007-0.002-0.014-0.002-0.021c0-0.966,0.775-1.739,1.731-1.739
			c0.766,0,1.411,0.501,1.64,1.193l1.182-0.179c0.045-0.093,0.093-0.187,0.148-0.273v-3.728l-2.962,2.021v-7.975l2.721,1.739
			l-0.429-3.161h6.62L111,58.083l2.719-1.739v7.975l-2.961-2.021v3.728c0.056,0.087,0.104,0.181,0.15,0.273l1.18,0.179
			c0.229-0.692,0.871-1.193,1.64-1.193c0.956,0,1.731,0.773,1.731,1.739c0,0.008-0.004,0.015-0.004,0.021l1.121,0.233
			c0.371-0.58,1.023-0.967,1.768-0.967c1.061,0,1.939,0.798,2.073,1.826l1.331,0.357c0.387-0.437,0.943-0.72,1.572-0.72
			c1.035,0,1.891,0.756,2.059,1.747l1.668,0.545c0.432-0.33,0.963-0.534,1.543-0.534c1.221,0,2.238,0.861,2.483,2.011l1.468,0.624
			c0.496-0.363,1.101-0.585,1.76-0.585c1.617,0,2.932,1.294,2.973,2.9l1.47,0.836c0.376-0.137,0.773-0.223,1.194-0.223
			c1.93,0,3.496,1.568,3.496,3.491c0,0.005-0.002,0.011-0.002,0.014l1.297,1.11c0.527-0.319,1.141-0.514,1.805-0.514
			c1.916,0,3.484,1.563,3.484,3.492c0,0.819-0.298,1.566-0.771,2.162l0.323,0.483c0.438-0.183,0.921-0.286,1.423-0.286
			c2.054,0,3.704,1.668,3.704,3.709c0,1.503-0.89,2.79-2.169,3.376l0.252,0.995c1.806,0.129,3.242,1.629,3.242,3.465
			c0,1.708-1.225,3.119-2.832,3.423c-0.122,2.771-0.91,5.658-1.259,6.818c1.073,0.725,1.78,1.951,1.78,3.346
			c0,2.235-1.807,4.042-4.037,4.042c-0.595,0-1.151-0.133-1.658-0.36l-4.363,5.991c0.377,0.455,0.604,1.037,0.604,1.672
			c0,1.439-1.171,2.612-2.612,2.612h-1.357c-0.942,2.901,1.761,5.286,2.881,6.112c0.752,0.556,1.23,1.458,1.23,2.464
			c0,1.696-1.383,3.08-3.083,3.08H74.922C73.221,135.794,71.839,134.41,71.839,132.714z"/>
		<path fill="#FFFFFF" d="M91.798,77.842c0-1.33,1.078-2.416,2.41-2.416c1.103,0,2.019,0.748,2.305,1.758
			c0.102-0.079,0.206-0.158,0.308-0.236c-0.465-0.43-0.759-1.039-0.759-1.719c0-0.696,0.308-1.314,0.791-1.744
			c-6.983,2.071-16,6.523-23.421,16.107c0,0,8.583-5.763,6.276,1.045c0,0-1.257,3.242,0.433,4.798h3.564c0,0,0.093-0.287,0.281-0.78
			c-0.118,0.014-0.236,0.035-0.358,0.035c-1.754,0-3.187-1.429-3.187-3.183c0-1.762,1.432-3.188,3.187-3.188
			c1.101,0,2.067,0.555,2.64,1.399c0.156-0.29,0.32-0.589,0.492-0.894c-0.143,0.023-0.287,0.045-0.433,0.045
			c-1.649,0-2.977-1.33-2.977-2.979c0-1.634,1.328-2.968,2.977-2.968c1.339,0,2.459,0.894,2.832,2.108
			c0.197-0.282,0.405-0.567,0.616-0.851c-1.321-0.218-2.327-1.353-2.327-2.738c0-1.538,1.242-2.785,2.783-2.785
			c1.217,0,2.236,0.78,2.619,1.861c0.143-0.15,0.286-0.297,0.433-0.445C92.411,79.711,91.798,78.848,91.798,77.842z"/>
		<path fill="#FFFFFF" d="M104.049,71.963c0.172,0.233,0.301,0.498,0.365,0.79c1.176-0.428,2.409-0.79,3.704-1.06
			C108.118,71.693,106.575,71.648,104.049,71.963z"/>
		<path fill="#FFFFFF" d="M100.398,73.978c-0.093-0.238-0.147-0.496-0.147-0.769c0-0.217,0.043-0.42,0.104-0.615
			c-0.487,0.104-0.992,0.217-1.511,0.347C99.496,73.061,100.058,73.437,100.398,73.978z"/>
		<path fill="#FFFFFF" d="M136.528,90.637c-2.306-6.808,6.275-1.045,6.275-1.045c-7.421-9.584-16.436-14.036-23.418-16.107
			c0.48,0.43,0.789,1.048,0.789,1.744c0,0.68-0.294,1.289-0.76,1.719c0.104,0.078,0.208,0.155,0.309,0.236
			c0.289-1.01,1.206-1.758,2.305-1.758c1.332,0,2.414,1.086,2.414,2.416c0,1.006-0.616,1.869-1.488,2.232
			c0.146,0.148,0.292,0.295,0.434,0.445c0.381-1.081,1.401-1.861,2.619-1.861c1.539,0,2.783,1.247,2.783,2.785
			c0,1.386-1.006,2.521-2.327,2.738c0.212,0.283,0.417,0.568,0.616,0.851c0.372-1.215,1.49-2.108,2.832-2.108
			c1.648,0,2.977,1.334,2.977,2.968c0,1.648-1.328,2.979-2.977,2.979c-0.149,0-0.293-0.021-0.436-0.045
			c0.172,0.305,0.336,0.604,0.494,0.894c0.572-0.845,1.539-1.399,2.639-1.399c1.756,0,3.186,1.426,3.186,3.188
			c0,1.754-1.43,3.183-3.186,3.183c-0.122,0-0.238-0.021-0.358-0.035c0.19,0.493,0.282,0.78,0.282,0.78h3.566
			C137.784,93.879,136.528,90.637,136.528,90.637z"/>
		<path fill="#FFFFFF" d="M115.985,73.209c0,0.272-0.053,0.53-0.146,0.769c0.342-0.541,0.902-0.917,1.556-1.037
			c-0.521-0.13-1.022-0.243-1.511-0.347C115.942,72.789,115.985,72.992,115.985,73.209z"/>
		<path fill="#FFFFFF" d="M108.118,71.693c1.294,0.27,2.529,0.632,3.706,1.06c0.065-0.292,0.192-0.557,0.363-0.79
			C109.663,71.648,108.118,71.693,108.118,71.693z"/>
		<path fill="#FFFFFF" d="M101.608,68.494c-0.197-0.121-0.369-0.279-0.501-0.465c-0.363,0.08-0.737,0.168-1.119,0.261
			c0.002,0.04,0.011,0.075,0.011,0.114c0,0.255-0.052,0.494-0.134,0.72C100.441,68.913,101.014,68.702,101.608,68.494z"/>
		<path fill="#FFFFFF" d="M77.396,81.884C77.048,82,76.685,82.077,76.3,82.077c-1.268,0-2.366-0.677-2.979-1.685
			c-0.208,0.179-0.406,0.365-0.609,0.55c0.299,0.516,0.483,1.106,0.483,1.747c0,1.926-1.557,3.486-3.492,3.486
			c-0.485,0-0.947-0.1-1.37-0.282c-0.1,0.15-0.193,0.306-0.292,0.458c0.56,0.651,0.911,1.484,0.911,2.406
			c0,2.006-1.59,3.63-3.577,3.701c-0.081,0.322-0.159,0.641-0.226,0.971c1.207,0.551,2.048,1.76,2.048,3.164
			c0,0.851-0.315,1.617-0.818,2.22c0.843-0.443,1.903-1.285,2.862-2.896C69.244,95.918,69.226,89.479,77.396,81.884z"/>
		<path fill="#FFFFFF" d="M79.422,80.113c2.224-1.816,4.952-3.671,8.254-5.501c-0.009,0-0.02,0-0.03,0
			c-1.027,0-1.908-0.617-2.306-1.496c-0.22,0.095-0.437,0.197-0.655,0.297c0.147,0.353,0.231,0.739,0.231,1.146
			c0,1.644-1.333,2.972-2.979,2.972c-1.068,0-2.001-0.565-2.527-1.409c-0.145,0.085-0.288,0.171-0.433,0.257
			c0.499,0.604,0.811,1.367,0.811,2.209C79.787,79.138,79.647,79.649,79.422,80.113z"/>
		<path fill="#FFFFFF" d="M105.041,67.218c-0.261,0.049-0.533,0.099-0.834,0.156c-0.018,0.099-0.05,0.189-0.086,0.282
			c0.306-0.1,0.596-0.202,0.909-0.301C105.034,67.31,105.036,67.263,105.041,67.218z"/>
		<path fill="#FFFFFF" d="M92.916,71.971c-0.795-0.002-1.475-0.447-1.832-1.1c-0.347,0.12-0.696,0.247-1.045,0.374
			c0.091,0.26,0.149,0.534,0.149,0.824c0,0.538-0.17,1.038-0.458,1.449C90.742,72.998,91.798,72.482,92.916,71.971z"/>
		<path fill="#FFFFFF" d="M96.012,69.325c-0.335,0.093-0.677,0.196-1.021,0.297c0.011,0.084,0.027,0.168,0.027,0.256
			c0,0.544-0.216,1.036-0.557,1.409c0.795-0.348,1.611-0.691,2.456-1.029C96.528,70.048,96.209,69.724,96.012,69.325z"/>
		<path fill="#FFFFFF" d="M61.565,94.59c-0.827,0.884-1.026,2.208-0.494,3.297c0.104,0.208,0.356,0.293,0.565,0.193
			c0.208-0.104,0.295-0.358,0.193-0.565c-0.379-0.775-0.238-1.719,0.351-2.347c0.157-0.171,0.148-0.438-0.021-0.597
			C61.991,94.412,61.722,94.421,61.565,94.59z"/>
		<path fill="#FFFFFF" d="M63.867,85.99c-1.074,0.533-1.747,1.657-1.711,2.858c0.007,0.232,0.203,0.417,0.435,0.408
			c0.234-0.005,0.416-0.2,0.41-0.435c-0.027-0.872,0.46-1.688,1.242-2.077c0.208-0.104,0.293-0.355,0.189-0.565
			C64.329,85.973,64.076,85.887,63.867,85.99z"/>
		<path fill="#FFFFFF" d="M79.77,74.741c0.193,0.015,0.361-0.129,0.377-0.322c0.059-0.766,0.625-1.427,1.373-1.604
			c0.19-0.045,0.306-0.232,0.261-0.423c-0.043-0.189-0.234-0.304-0.422-0.261c-1.06,0.25-1.83,1.149-1.912,2.233
			C79.431,74.559,79.576,74.728,79.77,74.741z"/>
		<path fill="#FFFFFF" d="M85.977,72.307c0.193,0.015,0.36-0.134,0.373-0.325c0.039-0.548,0.42-1.014,0.949-1.162
			c0.186-0.052,0.295-0.245,0.245-0.432c-0.052-0.188-0.245-0.297-0.433-0.243c-0.814,0.226-1.402,0.943-1.461,1.787
			C85.637,72.124,85.784,72.293,85.977,72.307z"/>
		<path fill="#FFFFFF" d="M91.469,69.973c0.156,0.021,0.297-0.09,0.315-0.243c0.063-0.499,0.453-0.906,0.949-0.988
			c0.154-0.025,0.256-0.168,0.231-0.322c-0.025-0.153-0.17-0.258-0.324-0.232c-0.737,0.122-1.321,0.729-1.414,1.472
			C91.208,69.813,91.315,69.955,91.469,69.973z"/>
		<path fill="#FFFFFF" d="M96.438,68.449c0.154,0.027,0.297-0.076,0.326-0.23c0.079-0.473,0.449-0.849,0.923-0.935
			c0.15-0.028,0.252-0.176,0.224-0.329c-0.026-0.154-0.173-0.255-0.327-0.226c-0.706,0.129-1.259,0.69-1.377,1.396
			C96.182,68.279,96.286,68.423,96.438,68.449z"/>
		<path fill="#FFFFFF" d="M101.352,66.977c0.148,0.043,0.306-0.043,0.349-0.193c0.09-0.318,0.362-0.557,0.691-0.602
			c0.154-0.021,0.262-0.165,0.238-0.318c-0.021-0.154-0.163-0.262-0.317-0.24c-0.548,0.079-1,0.473-1.154,1.006
			C101.117,66.779,101.203,66.934,101.352,66.977z"/>
		<path fill="#FFFFFF" d="M67.633,82.442c0.099-0.843,0.716-1.558,1.534-1.776c0.224-0.061,0.36-0.289,0.299-0.515
			c-0.061-0.226-0.292-0.36-0.516-0.3c-1.151,0.307-2.016,1.309-2.155,2.49c-0.029,0.232,0.138,0.44,0.369,0.469
			C67.395,82.84,67.606,82.673,67.633,82.442z"/>
		<path fill="#FFFFFF" d="M73.762,78.313c0.222,0.063,0.455-0.068,0.519-0.292c0.218-0.774,0.872-1.362,1.665-1.496
			c0.229-0.039,0.383-0.258,0.346-0.487c-0.04-0.229-0.256-0.385-0.487-0.345c-1.111,0.188-2.028,1.013-2.336,2.1
			C73.406,78.018,73.537,78.25,73.762,78.313z"/>
		<path fill="#FFFFFF" d="M102.504,71.502c-0.714-0.062-1.398,0.332-1.699,0.984c-0.068,0.141-0.005,0.308,0.136,0.376
			c0.14,0.064,0.306,0.003,0.373-0.138c0.204-0.439,0.662-0.704,1.142-0.665c0.156,0.015,0.292-0.1,0.305-0.254
			C102.775,71.65,102.66,71.514,102.504,71.502z"/>
		<path fill="#FFFFFF" d="M96.73,74.391c-0.07,0.14-0.013,0.308,0.127,0.38c0.14,0.067,0.308,0.011,0.376-0.129
			c0.256-0.516,0.813-0.803,1.384-0.709c0.152,0.024,0.297-0.081,0.32-0.233c0.025-0.153-0.079-0.299-0.232-0.321
			C97.888,73.249,97.093,73.655,96.73,74.391z"/>
		<path fill="#FFFFFF" d="M93.975,75.934c-0.875,0.105-1.563,0.791-1.674,1.668c-0.02,0.154,0.09,0.294,0.246,0.315
			c0.154,0.018,0.293-0.09,0.311-0.245c0.081-0.621,0.566-1.104,1.185-1.18c0.154-0.018,0.265-0.159,0.246-0.313
			C94.269,76.023,94.129,75.914,93.975,75.934z"/>
		<path fill="#FFFFFF" d="M89.441,79.284c-0.954,0.348-1.573,1.3-1.505,2.313c0.014,0.193,0.183,0.34,0.376,0.325
			c0.193-0.014,0.34-0.181,0.326-0.374c-0.046-0.703,0.383-1.362,1.045-1.605c0.183-0.066,0.275-0.269,0.208-0.451
			C89.824,79.31,89.624,79.217,89.441,79.284z"/>
		<path fill="#FFFFFF" d="M83.922,86.291c0.034,0.191,0.215,0.322,0.404,0.29c0.193-0.032,0.322-0.212,0.29-0.405
			c-0.136-0.817,0.333-1.619,1.117-1.904c0.183-0.066,0.275-0.269,0.211-0.451c-0.068-0.183-0.269-0.275-0.451-0.207
			C84.393,84.01,83.732,85.138,83.922,86.291z"/>
		<path fill="#FFFFFF" d="M82.455,89.577c-0.124-0.148-0.346-0.166-0.496-0.041c-0.875,0.741-1.154,1.988-0.68,3.034
			c0.081,0.177,0.288,0.256,0.465,0.176c0.177-0.081,0.256-0.289,0.174-0.466c-0.344-0.761-0.14-1.668,0.498-2.209
			C82.562,89.946,82.58,89.724,82.455,89.577z"/>
		<path fill="#FFFFFF" d="M108.118,74.197c-0.353,0-0.7,0.092-1.002,0.269c-0.167,0.099-0.224,0.312-0.125,0.481
			c0.099,0.167,0.313,0.224,0.482,0.125c0.193-0.112,0.418-0.173,0.646-0.173c0.231,0,0.453,0.061,0.646,0.173
			c0.168,0.099,0.385,0.042,0.483-0.125c0.097-0.17,0.042-0.383-0.125-0.481C108.818,74.289,108.471,74.197,108.118,74.197z"/>
		<path fill="#FFFFFF" d="M146.993,95.918c0.961,1.61,2.02,2.452,2.863,2.896c-0.504-0.603-0.817-1.369-0.817-2.22
			c0-1.404,0.841-2.613,2.046-3.164c-0.064-0.33-0.143-0.648-0.226-0.971c-1.983-0.071-3.577-1.695-3.577-3.701
			c0-0.922,0.352-1.757,0.914-2.406c-0.1-0.152-0.191-0.308-0.294-0.458c-0.419,0.183-0.883,0.282-1.368,0.282
			c-1.937,0-3.494-1.561-3.494-3.486c0-0.641,0.187-1.231,0.485-1.749c-0.202-0.183-0.401-0.369-0.61-0.548
			c-0.612,1.008-1.711,1.685-2.977,1.685c-0.385,0-0.75-0.077-1.098-0.193C147.01,89.479,146.993,95.918,146.993,95.918z"/>
		<path fill="#FFFFFF" d="M112.118,67.656c-0.038-0.093-0.066-0.184-0.088-0.282c-0.297-0.058-0.573-0.107-0.834-0.156
			c0.006,0.045,0.008,0.092,0.014,0.138C111.521,67.454,111.811,67.557,112.118,67.656z"/>
		<path fill="#FFFFFF" d="M136.451,78.587c0-0.842,0.312-1.604,0.812-2.209c-0.146-0.086-0.291-0.172-0.434-0.257
			c-0.526,0.844-1.457,1.409-2.527,1.409c-1.646,0-2.979-1.328-2.979-2.972c0-0.406,0.082-0.793,0.229-1.146
			c-0.217-0.1-0.434-0.204-0.651-0.299c-0.401,0.881-1.282,1.498-2.31,1.498c-0.008,0-0.02,0-0.028,0
			c3.301,1.83,6.03,3.685,8.253,5.501C136.588,79.649,136.451,79.138,136.451,78.587z"/>
		<path fill="#FFFFFF" d="M116.372,69.124c-0.082-0.226-0.132-0.465-0.132-0.72c0-0.039,0.007-0.074,0.011-0.114
			c-0.383-0.093-0.756-0.181-1.119-0.261c-0.135,0.186-0.307,0.344-0.503,0.465C115.227,68.702,115.797,68.913,116.372,69.124z"/>
		<path fill="#FFFFFF" d="M123.321,71.971c1.119,0.512,2.174,1.027,3.187,1.548c-0.286-0.411-0.458-0.911-0.458-1.449
			c0-0.29,0.061-0.564,0.15-0.824c-0.352-0.127-0.699-0.254-1.046-0.374C124.799,71.523,124.116,71.969,123.321,71.971z"/>
		<path fill="#FFFFFF" d="M119.319,70.258c0.844,0.338,1.662,0.682,2.455,1.029c-0.34-0.373-0.555-0.865-0.555-1.409
			c0-0.088,0.015-0.172,0.025-0.256c-0.342-0.101-0.684-0.204-1.021-0.297C120.028,69.724,119.71,70.048,119.319,70.258z"/>
		<path fill="#FFFFFF" d="M154.411,97.515c-0.104,0.207-0.018,0.462,0.193,0.565c0.207,0.1,0.459,0.015,0.562-0.193
			c0.534-1.089,0.335-2.413-0.492-3.297c-0.159-0.169-0.426-0.178-0.597-0.019c-0.168,0.159-0.178,0.426-0.02,0.597
			C154.647,95.796,154.788,96.739,154.411,97.515z"/>
		<path fill="#FFFFFF" d="M151.994,86.745c0.784,0.389,1.271,1.205,1.244,2.077c-0.005,0.234,0.177,0.43,0.409,0.435
			c0.233,0.009,0.427-0.176,0.434-0.408c0.036-1.201-0.633-2.325-1.711-2.858c-0.207-0.104-0.462-0.018-0.564,0.189
			C151.704,86.39,151.786,86.642,151.994,86.745z"/>
		<path fill="#FFFFFF" d="M134.716,72.815c0.75,0.177,1.313,0.838,1.374,1.604c0.016,0.193,0.186,0.337,0.379,0.322
			c0.193-0.014,0.338-0.183,0.324-0.376c-0.086-1.084-0.854-1.983-1.914-2.233c-0.188-0.043-0.378,0.071-0.424,0.261
			C134.413,72.583,134.528,72.771,134.716,72.815z"/>
		<path fill="#FFFFFF" d="M128.942,70.819c0.525,0.148,0.905,0.614,0.945,1.162c0.014,0.191,0.18,0.34,0.373,0.325
			c0.195-0.014,0.341-0.183,0.328-0.375c-0.059-0.844-0.646-1.562-1.461-1.787c-0.186-0.054-0.381,0.056-0.433,0.243
			C128.645,70.574,128.754,70.768,128.942,70.819z"/>
		<path fill="#FFFFFF" d="M123.505,68.741c0.495,0.082,0.886,0.489,0.946,0.988c0.02,0.153,0.162,0.265,0.315,0.243
			c0.154-0.018,0.263-0.159,0.243-0.314c-0.093-0.743-0.674-1.35-1.414-1.472c-0.153-0.025-0.297,0.079-0.322,0.232
			C123.25,68.573,123.352,68.716,123.505,68.741z"/>
		<path fill="#FFFFFF" d="M118.55,67.284c0.475,0.086,0.845,0.462,0.924,0.935c0.026,0.154,0.172,0.258,0.325,0.23
			c0.152-0.026,0.256-0.17,0.231-0.324c-0.118-0.705-0.673-1.267-1.378-1.396c-0.154-0.029-0.299,0.071-0.326,0.226
			C118.297,67.108,118.399,67.256,118.55,67.284z"/>
		<path fill="#FFFFFF" d="M113.846,66.182c0.328,0.045,0.6,0.283,0.693,0.602c0.041,0.15,0.196,0.236,0.347,0.193
			c0.148-0.043,0.234-0.197,0.193-0.348c-0.153-0.533-0.606-0.927-1.155-1.006c-0.153-0.021-0.295,0.086-0.316,0.24
			C113.584,66.017,113.694,66.16,113.846,66.182z"/>
		<path fill="#FFFFFF" d="M147.071,80.666c0.818,0.219,1.436,0.934,1.534,1.776c0.026,0.23,0.238,0.397,0.468,0.368
			c0.232-0.028,0.396-0.236,0.37-0.469c-0.14-1.182-1.005-2.184-2.153-2.49c-0.226-0.061-0.459,0.074-0.518,0.3
			C146.711,80.377,146.846,80.605,147.071,80.666z"/>
		<path fill="#FFFFFF" d="M140.291,76.524c0.795,0.134,1.448,0.722,1.665,1.496c0.064,0.224,0.297,0.354,0.521,0.292
			s0.356-0.295,0.292-0.521c-0.307-1.087-1.223-1.912-2.334-2.1c-0.231-0.04-0.447,0.116-0.487,0.345
			C139.907,76.267,140.061,76.485,140.291,76.524z"/>
		<path fill="#FFFFFF" d="M79.719,110.238c-0.952,0-1.733,0.774-1.733,1.736c0,0.952,0.781,1.727,1.733,1.727
			c0.956,0,1.734-0.774,1.734-1.727C81.454,111.013,80.675,110.238,79.719,110.238z"/>
		<path fill="#FFFFFF" d="M96.707,109.108c-0.959,0-1.736,0.776-1.736,1.734c0,0.96,0.777,1.729,1.736,1.729
			c0.953,0,1.729-0.77,1.729-1.729C98.436,109.885,97.659,109.108,96.707,109.108z"/>
		<path fill="#FFFFFF" d="M136.519,110.238c-0.958,0-1.735,0.774-1.735,1.736c0,0.952,0.777,1.727,1.735,1.727
			c0.95,0,1.732-0.774,1.732-1.727C138.251,111.013,137.469,110.238,136.519,110.238z"/>
		<path fill="#FFFFFF" d="M119.53,109.108c-0.953,0-1.729,0.776-1.729,1.734c0,0.96,0.776,1.729,1.729,1.729
			c0.959,0,1.736-0.77,1.736-1.729C121.266,109.885,120.489,109.108,119.53,109.108z"/>
		<path fill="#FFFFFF" d="M95.772,83.441l3.186,2.439c0.516-2.052,3.29-2.909,3.29-2.909v-4.44
			C96.974,81.293,95.772,83.441,95.772,83.441z"/>
		<path fill="#FFFFFF" d="M113.989,78.531v4.44c0,0,2.773,0.857,3.289,2.909l3.186-2.439
			C120.463,83.441,119.264,81.293,113.989,78.531z"/>
		<path fill="#FFFFFF" d="M114.922,72.725c0.068,0.141,0.232,0.202,0.374,0.138c0.142-0.068,0.202-0.235,0.136-0.376
			c-0.303-0.652-0.986-1.046-1.699-0.984c-0.153,0.012-0.27,0.148-0.258,0.304c0.016,0.154,0.15,0.269,0.305,0.254
			C114.26,72.021,114.719,72.285,114.922,72.725z"/>
		<path fill="#FFFFFF" d="M117.299,73.699c0.025,0.152,0.168,0.258,0.322,0.233c0.572-0.094,1.127,0.193,1.382,0.709
			c0.071,0.14,0.237,0.196,0.378,0.129c0.139-0.072,0.197-0.24,0.127-0.38c-0.365-0.735-1.16-1.142-1.977-1.013
			C117.377,73.4,117.276,73.546,117.299,73.699z"/>
		<path fill="#FFFFFF" d="M123.378,77.672c0.018,0.155,0.159,0.263,0.313,0.245c0.155-0.021,0.263-0.161,0.244-0.315
			c-0.11-0.877-0.798-1.563-1.675-1.668c-0.153-0.02-0.294,0.09-0.312,0.245c-0.018,0.154,0.09,0.296,0.244,0.313
			C122.813,76.567,123.299,77.051,123.378,77.672z"/>
		<path fill="#FFFFFF" d="M127.599,81.549c-0.011,0.193,0.132,0.36,0.327,0.374c0.193,0.015,0.36-0.132,0.375-0.325
			c0.067-1.014-0.549-1.966-1.504-2.313c-0.183-0.067-0.383,0.025-0.451,0.208c-0.066,0.183,0.028,0.385,0.209,0.451
			C127.217,80.187,127.645,80.846,127.599,81.549z"/>
		<path fill="#FFFFFF" d="M131.62,86.176c-0.031,0.193,0.098,0.373,0.29,0.405c0.191,0.032,0.372-0.099,0.404-0.29
			c0.191-1.153-0.469-2.281-1.571-2.678c-0.182-0.068-0.383,0.024-0.449,0.207s0.028,0.385,0.211,0.451
			C131.287,84.557,131.755,85.358,131.62,86.176z"/>
		<path fill="#FFFFFF" d="M134.495,92.746c0.177,0.08,0.385,0.001,0.465-0.176c0.475-1.046,0.193-2.293-0.68-3.034
			c-0.15-0.125-0.373-0.107-0.498,0.041c-0.125,0.146-0.107,0.369,0.043,0.494c0.636,0.541,0.84,1.448,0.494,2.209
			C134.239,92.457,134.319,92.665,134.495,92.746z"/>
	</g>
	<g>
		<path fill="#FDB827" d="M103.423,77.217v18.218h9.39V77.217c1.218,0.313,11.58,3.395,14.754,18.218h4.965
			c0,0-0.092-0.287-0.282-0.78c-1.593-0.182-2.828-1.515-2.828-3.147c0-0.664,0.202-1.278,0.548-1.788
			c-0.158-0.29-0.322-0.589-0.494-0.894c-1.432-0.211-2.538-1.436-2.538-2.934c0-0.301,0.058-0.585,0.142-0.859
			c-0.199-0.282-0.404-0.567-0.616-0.851c-0.148,0.025-0.301,0.047-0.456,0.047c-1.543,0-2.789-1.242-2.789-2.785
			c0-0.326,0.068-0.634,0.17-0.924c-0.142-0.15-0.288-0.297-0.434-0.445c-0.284,0.12-0.596,0.185-0.926,0.185
			c-1.329,0-2.405-1.083-2.405-2.417c0-0.229,0.042-0.447,0.101-0.658c-0.101-0.081-0.204-0.158-0.309-0.236
			c-0.418,0.386-0.977,0.628-1.594,0.628c-1.297,0-2.348-1.053-2.348-2.347c0-0.31,0.063-0.605,0.172-0.874
			c-0.375,0.577-1.027,0.96-1.764,0.96c-1.164,0-2.109-0.938-2.109-2.105c0-0.157,0.018-0.308,0.052-0.456
			c-1.177-0.428-2.411-0.79-3.706-1.06c-1.294,0.27-2.527,0.632-3.704,1.06c0.032,0.148,0.052,0.299,0.052,0.456
			c0,1.167-0.947,2.105-2.11,2.105c-0.737,0-1.385-0.383-1.763-0.96c0.109,0.269,0.17,0.564,0.17,0.874
			c0,1.294-1.049,2.347-2.345,2.347c-0.619,0-1.176-0.242-1.597-0.628c-0.102,0.078-0.206,0.157-0.308,0.236
			c0.061,0.211,0.102,0.429,0.102,0.658c0,1.334-1.076,2.417-2.407,2.417c-0.328,0-0.639-0.064-0.924-0.185
			c-0.147,0.148-0.29,0.295-0.433,0.445c0.102,0.29,0.168,0.598,0.168,0.924c0,1.543-1.244,2.785-2.787,2.785
			c-0.156,0-0.308-0.021-0.456-0.047c-0.211,0.283-0.419,0.568-0.616,0.851c0.083,0.274,0.14,0.559,0.14,0.859
			c0,1.498-1.103,2.723-2.538,2.934c-0.172,0.305-0.336,0.604-0.492,0.894c0.345,0.51,0.546,1.124,0.546,1.788
			c0,1.633-1.235,2.965-2.828,3.147c-0.188,0.493-0.281,0.78-0.281,0.78h4.964C91.845,80.611,102.208,77.53,103.423,77.217z
			 M108.118,73.782c1.326,0,2.395,1.066,2.395,2.384c0,1.323-1.069,2.397-2.395,2.397c-1.327,0-2.393-1.074-2.393-2.397
			C105.725,74.849,106.792,73.782,108.118,73.782z M108.118,79.197c1.531,0,2.769,1.229,2.769,2.762
			c0,1.526-1.238,2.768-2.769,2.768c-1.53,0-2.768-1.241-2.768-2.768C105.351,80.427,106.588,79.197,108.118,79.197z
			 M108.118,85.346c1.884,0,3.406,1.523,3.406,3.401c0,1.879-1.521,3.404-3.406,3.404c-1.883,0-3.405-1.525-3.405-3.404
			C104.713,86.869,106.235,85.346,108.118,85.346z"/>
		<path fill="#FDB827" d="M106.042,65.358c0.552-0.494,1.275-0.806,2.077-0.806c0.804,0,1.527,0.312,2.078,0.806V61.23l2.961,2.022
			v-5.882l-2.878,1.84l0.505-3.727h-5.331l0.505,3.727l-2.876-1.84v5.882l2.96-2.022V65.358z"/>
		<path fill="#FDB827" d="M141.316,131.599H74.922c-0.616,0-1.115,0.499-1.115,1.115c0,0.613,0.5,1.113,1.115,1.113h66.394
			c0.616,0,1.115-0.5,1.115-1.113C142.431,132.098,141.932,131.599,141.316,131.599z"/>
		<path fill="#FDB827" d="M141.645,120.74H74.593c-0.434,0-0.786,0.353-0.786,0.785c0,0.434,0.353,0.784,0.786,0.784h67.052
			c0.434,0,0.786-0.351,0.786-0.784C142.431,121.093,142.079,120.74,141.645,120.74z"/>
		<path fill="#FDB827" d="M141.622,131.042c-0.839-0.857-3.846-4.265-2.906-8.181H77.521c0.941,3.916-2.065,7.323-2.907,8.181
			H141.622z M131.151,123.708c1.719,0,3.119,1.395,3.119,3.122c0,1.727-1.4,3.123-3.119,3.123c-1.728,0-3.126-1.396-3.126-3.123
			C128.025,125.103,129.423,123.708,131.151,123.708z M119.028,124.071c1.121-0.479,2.543,0.365,3.188,1.889
			c0.644,1.516,0.27,3.123-0.846,3.596c-1.105,0.47-2.527-0.372-3.174-1.883C117.547,126.155,117.918,124.544,119.028,124.071z
			 M108.118,123.708c1.72,0,3.121,1.395,3.121,3.122c0,1.727-1.4,3.123-3.121,3.123c-1.718,0-3.12-1.396-3.12-3.123
			C104.998,125.103,106.4,123.708,108.118,123.708z M94.023,125.96c0.643-1.523,2.064-2.368,3.185-1.889
			c1.11,0.473,1.482,2.084,0.834,3.602c-0.646,1.511-2.067,2.353-3.175,1.883C93.753,129.083,93.379,127.476,94.023,125.96z
			 M85.086,123.708c1.729,0,3.125,1.395,3.125,3.122c0,1.727-1.396,3.123-3.125,3.123c-1.719,0-3.119-1.396-3.119-3.123
			C81.967,125.103,83.367,123.708,85.086,123.708z"/>
		<path fill="#FDB827" d="M147.264,103.581l-2.987-2.43l-2.995,9.728l2.804-0.931c0.368,2.977-1.953,7.369-5.256,7.369
			c-1.302,0-1.575-2.966-1.575-2.966h-1.358c0,0-0.686,3.279-3.516,3.279c-0.632,0-2.147-0.277-2.147-2.686
			c0-3.217,3.198-7.801,3.198-7.801l2.417,2.243l2.813-10.486l-4.311,2.437l1.155-4.626h-8.072l1.49,4.439l-4.674-2.431
			l-0.191,10.85l3.562-2.057c0.349,3.243-2.237,9.89-4.511,9.89c-2.069,0-2.778-4.28-2.778-4.28h-1.543c0,0-0.114,4.162-3.583,4.162
			c-3.942,0-4.676-4.326-4.676-8.297c0-2.426,0.652-3.443,0.652-3.443l4.838,2.91v-8.804l-2.971,1.029l3.154-4.017h-16.167
			l3.15,4.017l-2.968-1.029v8.804l4.836-2.91c0,0,0.652,1.018,0.652,3.443c0,3.971-0.732,8.297-4.674,8.297
			c-3.467,0-3.585-4.162-3.585-4.162h-1.543c0,0-0.709,4.28-2.778,4.28c-2.273,0-4.858-6.646-4.509-9.89l3.56,2.057l-0.189-10.85
			l-4.676,2.431l1.489-4.439h-8.069l1.155,4.626l-4.311-2.437l2.812,10.486l2.418-2.243c0,0,3.199,4.584,3.199,7.801
			c0,2.408-1.516,2.686-2.148,2.686c-2.828,0-3.516-3.279-3.516-3.279h-1.36c0,0-0.272,2.966-1.572,2.966
			c-3.305,0-5.626-4.393-5.259-7.369l2.805,0.931l-2.995-9.728l-2.988,2.43l-0.564-3.364l-3.442,1.465
			c0.161,1.479,0.574,3.005,1.138,4.511c0.152-0.017,0.303-0.045,0.458-0.045c2.232,0,4.04,1.801,4.04,4.033
			c0,1.06-0.416,2.012-1.078,2.731c2.268,3.612,4.514,6.204,4.514,6.204h5.279l1.076-1.395l0.979,1.395h5.372l2.098-2.115
			l2.392,2.115h4.16l1.149-1.399l1.157,1.399h7.411l3.005-2.979l3.007,2.979h7.408l1.157-1.399l1.149,1.399H125l2.391-2.115
			l2.1,2.115h5.373l0.977-1.395l1.078,1.395h5.276c0,0,2.249-2.592,4.515-6.204c-0.662-0.72-1.078-1.672-1.078-2.731
			c0-2.232,1.809-4.033,4.043-4.033c0.155,0,0.304,0.028,0.457,0.045c0.563-1.506,0.979-3.032,1.139-4.511l-3.443-1.465
			L147.264,103.581z M86.539,107.465c-1.124,0.457-2.535-0.417-3.141-1.94c-0.625-1.532-0.215-3.136,0.907-3.583
			c1.125-0.453,2.533,0.417,3.144,1.938C88.072,105.419,87.656,107.016,86.539,107.465z M108.118,105.608
			c-1.72,0-3.12-1.399-3.12-3.123c0-1.728,1.4-3.124,3.12-3.124c1.722,0,3.121,1.396,3.121,3.124
			C111.239,104.209,109.84,105.608,108.118,105.608z M129.698,107.465c-1.117-0.449-1.531-2.046-0.908-3.585
			c0.61-1.521,2.018-2.392,3.142-1.938c1.124,0.447,1.534,2.051,0.909,3.583C132.233,107.048,130.821,107.922,129.698,107.465z"/>
		<path fill="#FDB827" d="M107.307,80.663c0.244-0.148,0.523-0.229,0.811-0.229c0.29,0,0.569,0.081,0.813,0.229
			c0.166,0.104,0.381,0.054,0.482-0.111c0.104-0.164,0.053-0.383-0.111-0.485c-0.354-0.22-0.763-0.334-1.183-0.334
			c-0.419,0-0.829,0.114-1.183,0.334c-0.165,0.103-0.215,0.321-0.111,0.485C106.926,80.717,107.143,80.767,107.307,80.663z"/>
		<path fill="#FDB827" d="M107.161,86.579c0.301-0.135,0.625-0.202,0.958-0.202c0.335,0,0.657,0.067,0.959,0.202
			c0.177,0.079,0.385-0.002,0.464-0.181c0.078-0.178-0.002-0.383-0.18-0.462c-0.392-0.176-0.811-0.262-1.244-0.262
			c-0.432,0-0.85,0.086-1.241,0.262c-0.179,0.079-0.261,0.284-0.182,0.462C106.775,86.577,106.981,86.658,107.161,86.579z"/>
		<path fill="#FDB827" d="M152.792,108.556c-0.125-0.24-0.422-0.333-0.662-0.208c-0.243,0.127-0.334,0.426-0.207,0.664
			c0.52,0.991,0.318,2.225-0.485,2.998c-0.195,0.19-0.202,0.502-0.013,0.694c0.188,0.197,0.502,0.203,0.695,0.015
			C153.238,111.645,153.515,109.93,152.792,108.556z"/>
		<path fill="#FDB827" d="M69.686,108.556c-0.127-0.24-0.424-0.333-0.666-0.208c-0.238,0.127-0.331,0.426-0.206,0.664
			c0.519,0.991,0.32,2.225-0.483,2.998c-0.197,0.19-0.202,0.502-0.014,0.694c0.189,0.197,0.499,0.203,0.696,0.015
			C70.13,111.645,70.408,109.93,69.686,108.556z"/>
	</g>
	<g>
		<path fill="#342A7A" d="M90.32,50.426c-1.417,0-3.342,0-3.342-3.481V19.656c0-3.481,1.924-3.481,3.342-3.481v-2.51H76.59v2.51
			c1.417,0,3.344,0,3.344,3.481v27.288c0,3.481-1.926,3.481-3.344,3.481v2.508H90.32V50.426z"/>
		<path fill="#342A7A" d="M100.673,50.426c-1.416,0-3.342,0-3.342-3.481v-16.46l10.402,22.449h6.652V19.656
			c0-3.481,1.926-3.481,3.34-3.481v-2.51h-9.426v2.51c1.418,0,3.342,0,3.342,3.481V38.65l-11.575-24.985h-8.819v2.51
			c1.416,0,3.34,0,3.34,3.481v27.288c0,3.481-1.924,3.481-3.34,3.481v2.508h9.426V50.426z"/>
		<path fill="#342A7A" d="M62.023,50.426c-1.417,0-3.344,0-3.344-3.481V35.113c3.315,0,6.129,1.147,6.809,6.772l1.291,10.612
			c0.664,5.475,2.225,11.541,13.824,11.541h6.634v-3.331h-5.86c-3.215,0-6.217-2.015-6.458-5.657L74.063,42.24
			c-0.59-8.853-8.022-10.852-11.356-10.893l7.862-12.42c1.744-2.753,4.458-2.753,4.458-2.753v-2.51H63.487v2.51
			c1.282,0,4.454,0,2.713,2.753l-7.521,11.879v-11.15c0-3.481,1.926-3.481,3.344-3.481v-2.51H48.293v2.51c1.416,0,3.34,0,3.34,3.481
			v27.288c0,3.481-1.924,3.481-3.34,3.481v2.508h13.729V50.426z"/>
		<path fill="#342A7A" d="M131.055,53.888c3.852,0,6.861-1.416,6.861-1.416v1.416h3.752V41.476c0-3.483,1.665-3.483,3.079-3.483
			v-2.51h-13.355v2.51c1.416,0,3.515,0,3.515,3.483v6.025c0,2.072-0.564,3.368-2.918,3.368c-2.462,0-6.278-1.496-6.278-17.568
			c0-12.092,1.985-17.571,5.682-17.571c5.235,0,7.839,11.505,7.839,11.505h1.998V12.71h-1.998c0,0-0.444,2.76-1.164,2.76
			c-0.948,0-3.391-2.76-7.012-2.76c-5.561,0-13.244,5.735-13.244,20.591S125.495,53.888,131.055,53.888z"/>
		<path fill="#342A7A" d="M149.006,52.033c1.318,0,2.74,1.854,7.643,1.854c4.904,0,11.296-3.365,11.296-12.302
			c0-14.615-15.803-11.944-15.803-21.144c0-2.88,1.749-4.713,4.117-4.713c5.601,0,8.036,7.998,8.036,7.998h2.369V12.71h-2.369
			c0,0-0.012,1.892-0.996,1.892c-0.959,0-3.222-1.892-7.04-1.892c-5.497,0-10.062,3.508-10.062,11.74
			c0,13.817,15.355,12.36,15.355,20.741c0,5.166-3.549,5.678-4.904,5.678c-6.115,0-8.609-8.538-8.609-8.538h-2.243v11.557h2.243
			C148.04,53.888,148.215,52.033,149.006,52.033z"/>
		<path fill="#342A7A" d="M94.208,75.426c-1.332,0-2.41,1.086-2.41,2.416c0,1.006,0.612,1.869,1.486,2.232
			c0.285,0.12,0.596,0.185,0.924,0.185c1.332,0,2.407-1.083,2.407-2.417c0-0.229-0.041-0.447-0.102-0.658
			C96.227,76.174,95.311,75.426,94.208,75.426z M94.043,76.492c-0.619,0.075-1.104,0.559-1.185,1.18
			c-0.018,0.155-0.157,0.263-0.311,0.245c-0.156-0.021-0.265-0.161-0.246-0.315c0.111-0.877,0.798-1.563,1.674-1.668
			c0.154-0.02,0.293,0.09,0.313,0.245C94.308,76.333,94.197,76.475,94.043,76.492z"/>
		<path fill="#342A7A" d="M90.232,78.658c-1.541,0-2.783,1.247-2.783,2.785c0,1.386,1.006,2.521,2.327,2.738
			c0.148,0.025,0.3,0.047,0.456,0.047c1.543,0,2.787-1.242,2.787-2.785c0-0.326-0.066-0.634-0.168-0.924
			C92.468,79.438,91.449,78.658,90.232,78.658z M89.683,79.943c-0.662,0.243-1.092,0.902-1.045,1.605
			c0.014,0.193-0.132,0.36-0.326,0.374c-0.193,0.015-0.362-0.132-0.376-0.325c-0.068-1.014,0.551-1.966,1.505-2.313
			c0.183-0.067,0.383,0.025,0.449,0.208C89.958,79.675,89.865,79.877,89.683,79.943z"/>
		<path fill="#342A7A" d="M86.328,82.924c-1.649,0-2.977,1.334-2.977,2.968c0,1.648,1.328,2.979,2.977,2.979
			c0.146,0,0.29-0.021,0.433-0.045c1.436-0.211,2.538-1.436,2.538-2.934c0-0.301-0.057-0.585-0.14-0.859
			C88.788,83.817,87.667,82.924,86.328,82.924z M85.734,84.271c-0.784,0.285-1.253,1.087-1.117,1.904
			c0.032,0.193-0.097,0.373-0.29,0.405c-0.189,0.032-0.371-0.099-0.404-0.29c-0.19-1.153,0.471-2.281,1.572-2.678
			c0.182-0.068,0.383,0.024,0.451,0.207C86.009,84.003,85.917,84.205,85.734,84.271z"/>
		<path fill="#342A7A" d="M83.629,88.319c-1.754,0-3.187,1.426-3.187,3.188c0,1.754,1.432,3.183,3.187,3.183
			c0.122,0,0.24-0.021,0.358-0.035c1.593-0.183,2.828-1.515,2.828-3.147c0-0.664-0.201-1.278-0.546-1.788
			C85.696,88.874,84.729,88.319,83.629,88.319z M82.415,90.071c-0.637,0.541-0.841,1.448-0.498,2.209
			c0.082,0.177,0.003,0.385-0.174,0.466c-0.177,0.08-0.385,0.001-0.465-0.176c-0.474-1.046-0.195-2.293,0.68-3.034
			c0.15-0.125,0.373-0.107,0.496,0.041C82.58,89.724,82.562,89.946,82.415,90.071z"/>
		<path fill="#342A7A" d="M108.118,84.727c1.531,0,2.769-1.241,2.769-2.768c0-1.532-1.238-2.762-2.769-2.762
			c-1.53,0-2.768,1.229-2.768,2.762C105.351,83.485,106.588,84.727,108.118,84.727z M106.935,80.066
			c0.354-0.22,0.764-0.334,1.183-0.334c0.42,0,0.829,0.114,1.183,0.334c0.164,0.103,0.215,0.321,0.111,0.485
			c-0.101,0.165-0.316,0.215-0.482,0.111c-0.243-0.148-0.522-0.229-0.813-0.229c-0.288,0-0.567,0.081-0.811,0.229
			c-0.165,0.104-0.381,0.054-0.483-0.111C106.72,80.388,106.77,80.169,106.935,80.066z"/>
		<path fill="#342A7A" d="M108.118,85.346c-1.883,0-3.405,1.523-3.405,3.401c0,1.879,1.521,3.404,3.405,3.404
			c1.884,0,3.406-1.525,3.406-3.404C111.524,86.869,110.002,85.346,108.118,85.346z M109.542,86.398
			c-0.079,0.179-0.287,0.26-0.464,0.181c-0.303-0.135-0.625-0.202-0.959-0.202c-0.333,0-0.657,0.067-0.958,0.202
			c-0.179,0.079-0.385-0.002-0.465-0.181c-0.079-0.178,0.003-0.383,0.182-0.462c0.391-0.176,0.809-0.262,1.241-0.262
			c0.433,0,0.852,0.086,1.244,0.262C109.54,86.016,109.62,86.221,109.542,86.398z"/>
		<path fill="#342A7A" d="M108.118,78.563c1.326,0,2.395-1.074,2.395-2.397c0-1.317-1.069-2.384-2.395-2.384
			c-1.327,0-2.393,1.066-2.393,2.384C105.725,77.489,106.792,78.563,108.118,78.563z M107.116,74.466
			c0.303-0.177,0.65-0.269,1.002-0.269s0.7,0.092,1.004,0.269c0.167,0.099,0.222,0.312,0.125,0.481
			c-0.099,0.167-0.315,0.224-0.483,0.125c-0.193-0.112-0.415-0.173-0.646-0.173c-0.228,0-0.453,0.061-0.646,0.173
			c-0.168,0.099-0.383,0.042-0.482-0.125C106.892,74.777,106.949,74.564,107.116,74.466z"/>
		<path fill="#342A7A" d="M108.118,105.608c1.722,0,3.121-1.399,3.121-3.123c0-1.728-1.398-3.124-3.121-3.124
			c-1.72,0-3.12,1.396-3.12,3.124C104.998,104.209,106.398,105.608,108.118,105.608z"/>
		<path fill="#342A7A" d="M86.539,107.465c1.117-0.449,1.533-2.046,0.91-3.585c-0.61-1.521-2.019-2.392-3.144-1.938
			c-1.122,0.447-1.532,2.051-0.907,3.583C84.004,107.048,85.415,107.922,86.539,107.465z"/>
		<path fill="#342A7A" d="M129.698,107.465c1.123,0.457,2.535-0.417,3.143-1.94c0.625-1.532,0.215-3.136-0.909-3.583
			c-1.124-0.453-2.531,0.417-3.142,1.938C128.167,105.419,128.581,107.016,129.698,107.465z"/>
		<path fill="#342A7A" d="M68.22,113.862l4.366,5.991c-0.378,0.455-0.607,1.037-0.607,1.672c0,1.439,1.172,2.612,2.614,2.612h1.358
			c0.94,2.901-1.763,5.286-2.882,6.112c-0.752,0.556-1.23,1.458-1.23,2.464c0,1.696,1.382,3.08,3.083,3.08h66.394
			c1.7,0,3.083-1.384,3.083-3.08c0-1.006-0.479-1.908-1.23-2.464c-1.12-0.826-3.823-3.211-2.881-6.112h1.357
			c1.441,0,2.612-1.173,2.612-2.612c0-0.635-0.228-1.217-0.604-1.672l4.363-5.991c0.507,0.228,1.063,0.36,1.658,0.36
			c2.23,0,4.037-1.807,4.037-4.042c0-1.395-0.707-2.621-1.78-3.346c0.349-1.16,1.137-4.047,1.259-6.818
			c1.607-0.304,2.832-1.715,2.832-3.423c0-1.836-1.437-3.336-3.242-3.465l-0.252-0.995c1.279-0.586,2.169-1.873,2.169-3.376
			c0-2.041-1.65-3.709-3.704-3.709c-0.502,0-0.984,0.104-1.423,0.286l-0.323-0.483c0.474-0.596,0.771-1.343,0.771-2.162
			c0-1.93-1.568-3.492-3.484-3.492c-0.664,0-1.277,0.194-1.805,0.514l-1.297-1.11c0-0.003,0.002-0.009,0.002-0.014
			c0-1.923-1.566-3.491-3.496-3.491c-0.421,0-0.818,0.086-1.194,0.223l-1.47-0.836c-0.041-1.606-1.355-2.9-2.973-2.9
			c-0.659,0-1.264,0.222-1.76,0.585l-1.468-0.624c-0.245-1.149-1.263-2.011-2.483-2.011c-0.58,0-1.111,0.204-1.543,0.534
			l-1.668-0.545c-0.168-0.991-1.023-1.747-2.059-1.747c-0.629,0-1.186,0.283-1.572,0.72l-1.331-0.357
			c-0.134-1.028-1.013-1.826-2.073-1.826c-0.744,0-1.396,0.387-1.768,0.967l-1.121-0.233c0-0.007,0.004-0.014,0.004-0.021
			c0-0.966-0.775-1.739-1.731-1.739c-0.769,0-1.411,0.501-1.64,1.193l-1.18-0.179c-0.047-0.093-0.095-0.187-0.15-0.273v-3.728
			l2.961,2.021v-7.975L111,58.083l0.428-3.161h-6.62l0.429,3.161l-2.721-1.739v7.975l2.962-2.021v3.728
			c-0.055,0.087-0.104,0.181-0.148,0.273l-1.182,0.179c-0.229-0.692-0.874-1.193-1.64-1.193c-0.956,0-1.731,0.773-1.731,1.739
			c0,0.008,0.002,0.015,0.002,0.021l-1.117,0.233c-0.376-0.58-1.024-0.967-1.772-0.967c-1.06,0-1.937,0.798-2.071,1.826
			l-1.334,0.357c-0.385-0.437-0.941-0.72-1.57-0.72c-1.036,0-1.89,0.756-2.06,1.747l-1.668,0.545
			c-0.43-0.33-0.961-0.534-1.543-0.534c-1.221,0-2.237,0.861-2.481,2.011l-1.468,0.624c-0.494-0.363-1.101-0.585-1.76-0.585
			c-1.62,0-2.932,1.294-2.973,2.9l-1.471,0.836c-0.373-0.137-0.773-0.223-1.192-0.223c-1.93,0-3.498,1.568-3.498,3.491
			c0,0.005,0.003,0.011,0.003,0.014l-1.3,1.11c-0.526-0.319-1.138-0.514-1.802-0.514c-1.917,0-3.485,1.563-3.485,3.492
			c0,0.819,0.297,1.566,0.771,2.162l-0.324,0.483c-0.437-0.183-0.917-0.286-1.421-0.286c-2.055,0-3.706,1.668-3.706,3.709
			c0,1.503,0.892,2.79,2.169,3.376l-0.25,0.995c-1.804,0.129-3.244,1.629-3.244,3.465c0,1.708,1.225,3.119,2.834,3.423
			c0.12,2.771,0.907,5.658,1.258,6.818c-1.074,0.725-1.781,1.951-1.781,3.346c0,2.235,1.806,4.042,4.039,4.042
			C67.157,114.223,67.715,114.09,68.22,113.862z M154.077,94.571c0.171-0.159,0.438-0.15,0.597,0.019
			c0.827,0.884,1.026,2.208,0.492,3.297c-0.103,0.208-0.354,0.293-0.562,0.193c-0.211-0.104-0.297-0.358-0.193-0.565
			c0.377-0.775,0.236-1.719-0.354-2.347C153.899,94.997,153.909,94.73,154.077,94.571z M62.181,95.168
			c-0.589,0.628-0.73,1.571-0.351,2.347c0.102,0.207,0.014,0.462-0.193,0.565c-0.209,0.1-0.462,0.015-0.565-0.193
			c-0.532-1.089-0.333-2.413,0.494-3.297c0.157-0.169,0.426-0.178,0.594-0.019C62.329,94.73,62.338,94.997,62.181,95.168z
			 M68.331,112.01c0.804-0.773,1.002-2.007,0.483-2.998c-0.125-0.238-0.032-0.537,0.206-0.664c0.242-0.125,0.539-0.032,0.666,0.208
			c0.722,1.374,0.444,3.089-0.673,4.163c-0.197,0.188-0.507,0.183-0.696-0.015C68.129,112.512,68.134,112.2,68.331,112.01z
			 M142.431,132.714c0,0.613-0.499,1.113-1.115,1.113H74.922c-0.616,0-1.115-0.5-1.115-1.113c0-0.616,0.5-1.115,1.115-1.115h66.394
			C141.932,131.599,142.431,132.098,142.431,132.714z M141.622,131.042H74.614c0.841-0.857,3.848-4.265,2.907-8.181h61.194
			C137.776,126.777,140.783,130.185,141.622,131.042z M141.645,122.31H74.593c-0.434,0-0.786-0.351-0.786-0.784
			c0-0.433,0.353-0.785,0.786-0.785h67.052c0.434,0,0.786,0.353,0.786,0.785C142.431,121.959,142.079,122.31,141.645,122.31z
			 M152.129,108.348c0.24-0.125,0.537-0.032,0.662,0.208c0.724,1.374,0.446,3.089-0.672,4.163c-0.193,0.188-0.508,0.183-0.695-0.015
			c-0.189-0.192-0.183-0.504,0.013-0.694c0.804-0.773,1.005-2.007,0.485-2.998C151.795,108.773,151.886,108.475,152.129,108.348z
			 M151.805,86.18c0.103-0.207,0.357-0.293,0.564-0.189c1.078,0.533,1.747,1.657,1.711,2.858c-0.007,0.232-0.2,0.417-0.434,0.408
			c-0.232-0.005-0.414-0.2-0.409-0.435c0.026-0.872-0.46-1.688-1.244-2.077C151.786,86.642,151.704,86.39,151.805,86.18z
			 M146.772,80.151c0.059-0.226,0.292-0.36,0.518-0.3c1.148,0.307,2.014,1.309,2.153,2.49c0.026,0.232-0.138,0.44-0.37,0.469
			c-0.229,0.029-0.441-0.138-0.468-0.368c-0.099-0.843-0.716-1.558-1.534-1.776C146.846,80.605,146.711,80.377,146.772,80.151z
			 M140.434,75.692c1.111,0.188,2.027,1.013,2.334,2.1c0.064,0.226-0.068,0.458-0.292,0.521s-0.456-0.068-0.521-0.292
			c-0.217-0.774-0.87-1.362-1.665-1.496c-0.229-0.039-0.384-0.258-0.344-0.487C139.987,75.809,140.203,75.652,140.434,75.692z
			 M139.938,82.077c1.266,0,2.364-0.677,2.977-1.685c0.209,0.179,0.408,0.365,0.61,0.548c-0.299,0.518-0.485,1.108-0.485,1.749
			c0,1.926,1.558,3.486,3.494,3.486c0.485,0,0.949-0.1,1.368-0.282c0.103,0.15,0.194,0.306,0.294,0.458
			c-0.563,0.649-0.914,1.484-0.914,2.406c0,2.006,1.594,3.63,3.577,3.701c0.083,0.322,0.161,0.641,0.226,0.971
			c-1.205,0.551-2.046,1.76-2.046,3.164c0,0.851,0.313,1.617,0.817,2.22c-0.844-0.443-1.902-1.285-2.863-2.896
			c0,0,0.018-6.439-8.152-14.034C139.188,82,139.553,82.077,139.938,82.077z M136.528,90.637c0,0,1.256,3.242-0.43,4.798h-3.566
			h-4.965c-3.174-14.823-13.536-17.904-14.754-18.218v18.218h-9.39V77.217c-1.215,0.313-11.578,3.395-14.753,18.218h-4.964h-3.564
			c-1.69-1.556-0.433-4.798-0.433-4.798c2.307-6.808-6.276-1.045-6.276-1.045c7.421-9.584,16.438-14.036,23.421-16.107
			c-0.483,0.43-0.791,1.048-0.791,1.744c0,0.68,0.293,1.289,0.759,1.719c0.42,0.386,0.978,0.628,1.597,0.628
			c1.296,0,2.345-1.053,2.345-2.347c0-0.31-0.061-0.605-0.17-0.874c0.378,0.577,1.026,0.96,1.763,0.96
			c1.164,0,2.11-0.938,2.11-2.105c0-0.157-0.02-0.308-0.052-0.456c-0.064-0.292-0.193-0.557-0.365-0.79
			c2.526-0.314,4.069-0.27,4.069-0.27s1.544-0.045,4.069,0.27c-0.171,0.233-0.298,0.498-0.363,0.79
			c-0.034,0.148-0.052,0.299-0.052,0.456c0,1.167,0.945,2.105,2.109,2.105c0.736,0,1.389-0.383,1.764-0.96
			c-0.109,0.269-0.172,0.564-0.172,0.874c0,1.294,1.051,2.347,2.348,2.347c0.617,0,1.176-0.242,1.594-0.628
			c0.466-0.43,0.76-1.039,0.76-1.719c0-0.696-0.309-1.314-0.789-1.744c6.982,2.071,15.997,6.523,23.418,16.107
			C142.803,89.592,134.222,83.829,136.528,90.637z M119.53,109.108c0.959,0,1.736,0.776,1.736,1.734c0,0.96-0.777,1.729-1.736,1.729
			c-0.953,0-1.729-0.77-1.729-1.729C117.8,109.885,118.577,109.108,119.53,109.108z M117.278,85.881
			c-0.516-2.052-3.289-2.909-3.289-2.909v-4.44c5.275,2.762,6.475,4.91,6.475,4.91L117.278,85.881z M95.772,83.441
			c0,0,1.201-2.148,6.476-4.91v4.44c0,0-2.774,0.857-3.29,2.909L95.772,83.441z M98.436,110.843c0,0.96-0.777,1.729-1.729,1.729
			c-0.959,0-1.736-0.77-1.736-1.729c0-0.958,0.777-1.734,1.736-1.734C97.659,109.108,98.436,109.885,98.436,110.843z
			 M102.761,71.806c-0.013,0.154-0.149,0.269-0.305,0.254c-0.479-0.039-0.938,0.226-1.142,0.665
			c-0.066,0.141-0.233,0.202-0.373,0.138c-0.142-0.068-0.204-0.235-0.136-0.376c0.301-0.652,0.985-1.046,1.699-0.984
			C102.66,71.514,102.775,71.65,102.761,71.806z M100.398,73.978c-0.34-0.541-0.902-0.917-1.554-1.037
			c0.52-0.13,1.024-0.243,1.511-0.347c-0.061,0.195-0.104,0.398-0.104,0.615C100.251,73.481,100.305,73.739,100.398,73.978z
			 M98.937,73.699c-0.023,0.152-0.168,0.258-0.32,0.233c-0.571-0.094-1.128,0.193-1.384,0.709c-0.068,0.14-0.236,0.196-0.376,0.129
			c-0.14-0.072-0.197-0.24-0.127-0.38c0.363-0.735,1.158-1.142,1.975-1.013C98.858,73.4,98.962,73.546,98.937,73.699z
			 M119.508,74.391c0.07,0.14,0.012,0.308-0.127,0.38c-0.141,0.067-0.307,0.011-0.378-0.129c-0.255-0.516-0.81-0.803-1.382-0.709
			c-0.154,0.024-0.297-0.081-0.322-0.233c-0.023-0.153,0.078-0.299,0.232-0.321C118.348,73.249,119.143,73.655,119.508,74.391z
			 M115.838,73.978c0.094-0.238,0.146-0.496,0.146-0.769c0-0.217-0.043-0.42-0.102-0.615c0.488,0.104,0.99,0.217,1.511,0.347
			C116.741,73.061,116.18,73.437,115.838,73.978z M113.733,71.502c0.713-0.062,1.396,0.332,1.699,0.984
			c0.066,0.141,0.006,0.308-0.136,0.376c-0.142,0.064-0.306,0.003-0.374-0.138c-0.203-0.439-0.662-0.704-1.143-0.665
			c-0.154,0.015-0.289-0.1-0.305-0.254C113.463,71.65,113.58,71.514,113.733,71.502z M134.879,72.132
			c1.06,0.25,1.828,1.149,1.914,2.233c0.014,0.193-0.131,0.362-0.324,0.376c-0.193,0.015-0.363-0.129-0.379-0.322
			c-0.061-0.766-0.624-1.427-1.374-1.604c-0.188-0.045-0.304-0.232-0.261-0.423C134.501,72.203,134.692,72.089,134.879,72.132z
			 M129.127,70.145c0.814,0.226,1.402,0.943,1.461,1.787c0.013,0.192-0.133,0.361-0.328,0.375c-0.193,0.015-0.359-0.134-0.373-0.325
			c-0.04-0.548-0.42-1.014-0.945-1.162c-0.188-0.052-0.297-0.245-0.247-0.432C128.747,70.2,128.942,70.091,129.127,70.145z
			 M128.59,74.612c1.027,0,1.908-0.617,2.31-1.498c0.218,0.095,0.435,0.199,0.651,0.299c-0.146,0.353-0.229,0.739-0.229,1.146
			c0,1.644,1.333,2.972,2.979,2.972c1.07,0,2.001-0.565,2.527-1.409c0.143,0.085,0.288,0.171,0.434,0.257
			c-0.5,0.604-0.812,1.367-0.812,2.209c0,0.551,0.138,1.063,0.364,1.526c-2.223-1.816-4.952-3.671-8.253-5.501
			C128.571,74.612,128.583,74.612,128.59,74.612z M126.2,71.245c-0.09,0.26-0.15,0.534-0.15,0.824c0,0.538,0.172,1.038,0.458,1.449
			c-1.013-0.521-2.067-1.036-3.187-1.548c0.795-0.002,1.479-0.447,1.833-1.1C125.5,70.991,125.848,71.118,126.2,71.245z
			 M123.596,68.187c0.74,0.122,1.321,0.729,1.414,1.472c0.02,0.155-0.089,0.297-0.243,0.314c-0.153,0.021-0.296-0.09-0.315-0.243
			c-0.061-0.499-0.451-0.906-0.946-0.988c-0.153-0.025-0.256-0.168-0.231-0.322C123.299,68.266,123.443,68.161,123.596,68.187z
			 M121.245,69.622c-0.011,0.084-0.025,0.168-0.025,0.256c0,0.544,0.215,1.036,0.555,1.409c-0.793-0.348-1.611-0.691-2.455-1.029
			c0.392-0.21,0.709-0.534,0.905-0.933C120.561,69.418,120.903,69.521,121.245,69.622z M118.653,66.729
			c0.705,0.129,1.26,0.69,1.378,1.396c0.024,0.154-0.079,0.298-0.231,0.324c-0.153,0.027-0.299-0.076-0.325-0.23
			c-0.079-0.473-0.449-0.849-0.924-0.935c-0.151-0.028-0.253-0.176-0.224-0.329C118.354,66.801,118.499,66.7,118.653,66.729z
			 M116.25,68.29c-0.004,0.04-0.011,0.075-0.011,0.114c0,0.255,0.05,0.494,0.132,0.72c-0.574-0.211-1.145-0.422-1.743-0.63
			c0.196-0.121,0.368-0.279,0.503-0.465C115.495,68.109,115.868,68.197,116.25,68.29z M113.924,65.623
			c0.549,0.079,1.002,0.473,1.155,1.006c0.041,0.15-0.045,0.305-0.193,0.348c-0.15,0.043-0.306-0.043-0.347-0.193
			c-0.094-0.318-0.365-0.557-0.693-0.602c-0.152-0.021-0.262-0.165-0.238-0.318C113.629,65.709,113.771,65.602,113.924,65.623z
			 M112.03,67.374c0.021,0.099,0.05,0.189,0.088,0.282c-0.307-0.1-0.597-0.202-0.908-0.301c-0.006-0.046-0.008-0.093-0.014-0.138
			C111.457,67.267,111.733,67.316,112.03,67.374z M103.081,63.253v-5.882l2.876,1.84l-0.505-3.727h5.331l-0.505,3.727l2.878-1.84
			v5.882l-2.961-2.022v4.128c-0.551-0.494-1.274-0.806-2.078-0.806c-0.802,0-1.525,0.312-2.077,0.806V61.23L103.081,63.253z
			 M104.207,67.374c0.301-0.058,0.573-0.107,0.834-0.156c-0.005,0.045-0.007,0.092-0.011,0.138
			c-0.313,0.099-0.603,0.201-0.909,0.301C104.157,67.563,104.189,67.473,104.207,67.374z M102.313,65.623
			c0.154-0.021,0.295,0.086,0.317,0.24c0.023,0.153-0.084,0.297-0.238,0.318c-0.329,0.045-0.601,0.283-0.691,0.602
			c-0.043,0.15-0.2,0.236-0.349,0.193c-0.149-0.043-0.235-0.197-0.193-0.348C101.313,66.096,101.765,65.702,102.313,65.623z
			 M101.106,68.029c0.133,0.186,0.305,0.344,0.501,0.465c-0.594,0.208-1.167,0.419-1.744,0.63c0.083-0.226,0.134-0.465,0.134-0.72
			c0-0.039-0.009-0.074-0.011-0.114C100.369,68.197,100.743,68.109,101.106,68.029z M97.584,66.729
			c0.154-0.029,0.301,0.071,0.327,0.226c0.029,0.153-0.073,0.301-0.224,0.329c-0.474,0.086-0.845,0.462-0.923,0.935
			c-0.029,0.154-0.172,0.258-0.326,0.23c-0.152-0.026-0.256-0.17-0.231-0.324C96.325,67.42,96.878,66.858,97.584,66.729z
			 M95.019,69.878c0-0.088-0.016-0.172-0.027-0.256c0.344-0.101,0.686-0.204,1.021-0.297c0.197,0.398,0.516,0.723,0.906,0.933
			c-0.845,0.338-1.661,0.682-2.456,1.029C94.802,70.914,95.019,70.422,95.019,69.878z M92.64,68.187
			c0.154-0.025,0.299,0.079,0.324,0.232c0.025,0.154-0.077,0.297-0.231,0.322c-0.496,0.082-0.886,0.489-0.949,0.988
			c-0.018,0.153-0.159,0.265-0.315,0.243c-0.154-0.018-0.262-0.159-0.244-0.314C91.319,68.915,91.902,68.309,92.64,68.187z
			 M91.084,70.871c0.356,0.652,1.037,1.098,1.832,1.1c-1.117,0.512-2.173,1.027-3.187,1.548c0.288-0.411,0.458-0.911,0.458-1.449
			c0-0.29-0.058-0.564-0.149-0.824C90.388,71.118,90.737,70.991,91.084,70.871z M87.11,70.145c0.188-0.054,0.381,0.056,0.433,0.243
			c0.05,0.187-0.059,0.38-0.245,0.432c-0.528,0.148-0.91,0.614-0.949,1.162c-0.013,0.191-0.179,0.34-0.373,0.325
			c-0.193-0.014-0.34-0.183-0.328-0.375C85.708,71.088,86.296,70.37,87.11,70.145z M81.359,72.132
			c0.188-0.043,0.379,0.071,0.422,0.261c0.045,0.19-0.071,0.378-0.261,0.423c-0.748,0.177-1.314,0.838-1.373,1.604
			c-0.016,0.193-0.184,0.337-0.377,0.322c-0.193-0.014-0.338-0.183-0.322-0.376C79.529,73.281,80.299,72.382,81.359,72.132z
			 M79.41,76.121c0.526,0.844,1.459,1.409,2.527,1.409c1.645,0,2.979-1.328,2.979-2.972c0-0.406-0.084-0.793-0.231-1.146
			c0.219-0.1,0.435-0.202,0.655-0.297c0.397,0.879,1.278,1.496,2.306,1.496c0.011,0,0.021,0,0.03,0
			c-3.302,1.83-6.03,3.685-8.254,5.501c0.226-0.464,0.365-0.976,0.365-1.526c0-0.842-0.312-1.604-0.811-2.209
			C79.122,76.292,79.265,76.206,79.41,76.121z M73.468,77.792c0.308-1.087,1.225-1.912,2.336-2.1
			c0.231-0.04,0.448,0.116,0.487,0.345c0.038,0.229-0.117,0.448-0.346,0.487c-0.793,0.134-1.446,0.722-1.665,1.496
			c-0.064,0.224-0.297,0.354-0.519,0.292C73.537,78.25,73.406,78.018,73.468,77.792z M66.795,82.342
			c0.139-1.182,1.004-2.184,2.155-2.49c0.224-0.061,0.455,0.074,0.516,0.3c0.061,0.226-0.075,0.454-0.299,0.515
			c-0.818,0.219-1.436,0.934-1.534,1.776c-0.027,0.23-0.238,0.397-0.469,0.368C66.933,82.782,66.767,82.574,66.795,82.342z
			 M68.954,88.758c0-0.922-0.351-1.755-0.911-2.406c0.098-0.152,0.191-0.308,0.292-0.458c0.422,0.183,0.884,0.282,1.37,0.282
			c1.935,0,3.492-1.561,3.492-3.486c0-0.641-0.184-1.231-0.483-1.747c0.203-0.185,0.401-0.371,0.609-0.55
			c0.612,1.008,1.711,1.685,2.979,1.685c0.385,0,0.748-0.077,1.096-0.193c-8.17,7.595-8.152,14.034-8.152,14.034
			c-0.959,1.61-2.02,2.452-2.862,2.896c0.503-0.603,0.818-1.369,0.818-2.22c0-1.404-0.841-2.613-2.048-3.164
			c0.066-0.33,0.145-0.648,0.226-0.971C67.364,92.388,68.954,90.764,68.954,88.758z M63,88.822c0.005,0.234-0.176,0.43-0.41,0.435
			c-0.232,0.009-0.428-0.176-0.435-0.408c-0.036-1.201,0.637-2.325,1.711-2.858c0.209-0.104,0.462-0.018,0.565,0.189
			c0.104,0.21,0.018,0.462-0.189,0.565C63.46,87.134,62.974,87.95,63,88.822z M64.968,101.682l3.442-1.465l0.564,3.364l2.988-2.43
			l2.995,9.728l-2.805-0.931c-0.367,2.977,1.955,7.369,5.259,7.369c1.299,0,1.572-2.966,1.572-2.966h1.36
			c0,0,0.688,3.279,3.516,3.279c0.632,0,2.148-0.277,2.148-2.686c0-3.217-3.199-7.801-3.199-7.801l-2.418,2.243l-2.812-10.486
			l4.311,2.437l-1.155-4.626h8.069l-1.489,4.439l4.676-2.431l0.189,10.85l-3.56-2.057c-0.349,3.243,2.235,9.89,4.509,9.89
			c2.069,0,2.778-4.28,2.778-4.28h1.543c0,0,0.118,4.162,3.585,4.162c3.941,0,4.674-4.326,4.674-8.297
			c0-2.426-0.652-3.443-0.652-3.443l-4.836,2.91v-8.804l2.968,1.029l-3.15-4.017h16.167l-3.154,4.017l2.971-1.029v8.804l-4.838-2.91
			c0,0-0.652,1.018-0.652,3.443c0,3.971,0.733,8.297,4.676,8.297c3.469,0,3.583-4.162,3.583-4.162h1.543c0,0,0.709,4.28,2.778,4.28
			c2.273,0,4.859-6.646,4.511-9.89l-3.562,2.057l0.191-10.85l4.674,2.431l-1.49-4.439h8.072l-1.155,4.626l4.311-2.437l-2.813,10.486
			l-2.417-2.243c0,0-3.198,4.584-3.198,7.801c0,2.408,1.516,2.686,2.147,2.686c2.83,0,3.516-3.279,3.516-3.279h1.358
			c0,0,0.273,2.966,1.575,2.966c3.303,0,5.624-4.393,5.256-7.369l-2.804,0.931l2.995-9.728l2.987,2.43l0.563-3.364l3.443,1.465
			c-0.16,1.479-0.576,3.005-1.139,4.511c-0.153-0.017-0.302-0.045-0.457-0.045c-2.234,0-4.043,1.801-4.043,4.033
			c0,1.06,0.416,2.012,1.078,2.731c-2.266,3.612-4.515,6.204-4.515,6.204h-5.276l-1.078-1.395l-0.977,1.395h-5.373l-2.1-2.115
			L125,119.116h-4.16l-1.149-1.399l-1.157,1.399h-7.408l-3.007-2.979l-3.005,2.979h-7.411l-1.157-1.399l-1.149,1.399h-4.16
			l-2.392-2.115l-2.098,2.115h-5.372l-0.979-1.395l-1.076,1.395h-5.279c0,0-2.246-2.592-4.514-6.204
			c0.662-0.72,1.078-1.672,1.078-2.731c0-2.232-1.808-4.033-4.04-4.033c-0.156,0-0.306,0.028-0.458,0.045
			C65.542,104.687,65.129,103.16,64.968,101.682z M77.986,111.975c0-0.962,0.781-1.736,1.733-1.736c0.956,0,1.734,0.774,1.734,1.736
			c0,0.952-0.778,1.727-1.734,1.727C78.767,113.701,77.986,112.927,77.986,111.975z M138.251,111.975
			c0,0.952-0.782,1.727-1.732,1.727c-0.958,0-1.735-0.774-1.735-1.727c0-0.962,0.777-1.736,1.735-1.736
			C137.469,110.238,138.251,111.013,138.251,111.975z"/>
		<path fill="#342A7A" d="M85.086,123.708c-1.719,0-3.119,1.395-3.119,3.122c0,1.727,1.4,3.123,3.119,3.123
			c1.729,0,3.125-1.396,3.125-3.123C88.211,125.103,86.815,123.708,85.086,123.708z"/>
		<path fill="#342A7A" d="M108.118,123.708c-1.718,0-3.12,1.395-3.12,3.122c0,1.727,1.402,3.123,3.12,3.123
			c1.72,0,3.121-1.396,3.121-3.123C111.239,125.103,109.838,123.708,108.118,123.708z"/>
		<path fill="#342A7A" d="M97.208,124.071c-1.121-0.479-2.542,0.365-3.185,1.889c-0.645,1.516-0.271,3.123,0.843,3.596
			c1.108,0.47,2.529-0.372,3.175-1.883C98.69,126.155,98.318,124.544,97.208,124.071z"/>
		<path fill="#342A7A" d="M131.151,123.708c-1.728,0-3.126,1.395-3.126,3.122c0,1.727,1.398,3.123,3.126,3.123
			c1.719,0,3.119-1.396,3.119-3.123C134.27,125.103,132.87,123.708,131.151,123.708z"/>
		<path fill="#342A7A" d="M119.028,124.071c-1.109,0.473-1.48,2.084-0.832,3.602c0.646,1.511,2.068,2.353,3.174,1.883
			c1.115-0.473,1.489-2.08,0.846-3.596C121.571,124.437,120.149,123.592,119.028,124.071z"/>
		<path fill="#342A7A" d="M124.442,77.842c0-1.33-1.082-2.416-2.414-2.416c-1.099,0-2.016,0.748-2.305,1.758
			c-0.059,0.211-0.101,0.429-0.101,0.658c0,1.334,1.076,2.417,2.405,2.417c0.33,0,0.642-0.064,0.926-0.185
			C123.826,79.711,124.442,78.848,124.442,77.842z M123.378,77.672c-0.079-0.621-0.565-1.104-1.185-1.18
			c-0.154-0.018-0.262-0.159-0.244-0.313c0.018-0.155,0.158-0.265,0.312-0.245c0.877,0.105,1.564,0.791,1.675,1.668
			c0.019,0.154-0.089,0.294-0.244,0.315C123.538,77.935,123.396,77.827,123.378,77.672z"/>
		<path fill="#342A7A" d="M128.79,81.443c0-1.538-1.244-2.785-2.783-2.785c-1.218,0-2.238,0.78-2.619,1.861
			c-0.102,0.29-0.17,0.598-0.17,0.924c0,1.543,1.246,2.785,2.789,2.785c0.155,0,0.308-0.021,0.456-0.047
			C127.784,83.964,128.79,82.829,128.79,81.443z M127.599,81.549c0.046-0.703-0.382-1.362-1.044-1.605
			c-0.181-0.066-0.275-0.269-0.209-0.451c0.068-0.183,0.269-0.275,0.451-0.208c0.955,0.348,1.571,1.3,1.504,2.313
			c-0.015,0.193-0.182,0.34-0.375,0.325C127.731,81.909,127.588,81.742,127.599,81.549z"/>
		<path fill="#342A7A" d="M129.911,88.87c1.648,0,2.977-1.33,2.977-2.979c0-1.634-1.328-2.968-2.977-2.968
			c-1.342,0-2.46,0.894-2.832,2.108c-0.084,0.274-0.142,0.559-0.142,0.859c0,1.498,1.106,2.723,2.538,2.934
			C129.618,88.849,129.761,88.87,129.911,88.87z M130.743,83.613c1.103,0.396,1.763,1.524,1.571,2.678
			c-0.032,0.191-0.213,0.322-0.404,0.29c-0.192-0.032-0.321-0.212-0.29-0.405c0.136-0.817-0.333-1.619-1.115-1.904
			c-0.183-0.066-0.277-0.269-0.211-0.451S130.561,83.545,130.743,83.613z"/>
		<path fill="#342A7A" d="M132.608,88.319c-1.1,0-2.066,0.555-2.639,1.399c-0.346,0.51-0.548,1.124-0.548,1.788
			c0,1.633,1.235,2.966,2.828,3.147c0.12,0.014,0.236,0.035,0.358,0.035c1.756,0,3.186-1.429,3.186-3.183
			C135.793,89.745,134.364,88.319,132.608,88.319z M134.959,92.57c-0.08,0.177-0.288,0.256-0.465,0.176
			c-0.176-0.081-0.256-0.289-0.176-0.466c0.346-0.761,0.142-1.668-0.494-2.209c-0.15-0.125-0.168-0.348-0.043-0.494
			c0.125-0.148,0.348-0.166,0.498-0.041C135.153,90.277,135.434,91.524,134.959,92.57z"/>
		<path fill="#342A7A" d="M211.248,101.729c-8.492-1.954-8.817,12.309-12.865,11.376c-1.78-0.41-1.505-2.656-1.073-4.525
			c0.898-3.905,3.771-3.402,3.771-3.402l1.111-4.832c0,0-6.41-1.453-8.451,7.415c-1.618,7.034,1.551,9.713,3.53,10.171
			c8.499,1.954,8.688-12.341,12.866-11.378c2.295,0.526,2.207,3.706,1.791,5.512c-0.96,4.178-4.776,4.031-4.776,4.031l-1.103,4.792
			c0,0,7.217,1.674,9.447-8.002C217.225,105.374,214.186,102.406,211.248,101.729z"/>
		<polygon fill="#342A7A" points="200.02,141.252 194.842,138.535 200.536,127.677 197.295,125.976 191.6,136.836 187.565,134.719 
			193.884,122.668 190.644,120.969 182.024,137.403 200.961,147.335 209.579,130.9 206.339,129.199 		"/>
		<polygon fill="#342A7A" points="184.325,161.995 171.179,150.109 167.86,153.78 183.722,168.12 195.266,155.351 192.552,152.898 
					"/>
		<polygon fill="#342A7A" points="162.04,179.576 158.868,174.668 169.164,168.013 167.178,164.939 156.88,171.593 154.407,167.768 
			165.836,160.381 163.849,157.307 148.263,167.379 159.87,185.339 175.456,175.267 173.469,172.191 		"/>
		<path fill="#342A7A" d="M136.417,182.244l1.025,3.516l5.477-1.601l0.764,2.624c0,0-1.571,2.431-5.321,3.524
			c-4.479,1.309-7.604-1.324-8.755-5.271c-1.151-3.948,0.066-7.848,4.545-9.154c2.854-0.834,5.155-0.067,6.748,1.615l4.479-2.188
			c-2.777-3.36-7.221-4.411-12.25-2.943c-6.82,1.991-10.243,7.308-8.274,14.056c1.972,6.75,7.716,9.391,14.535,7.4
			c6.921-2.02,9.667-6.305,9.667-6.305l-2.412-8.258L136.417,182.244z"/>
		<polygon fill="#342A7A" points="111.888,190.272 102.481,176.437 97.573,176.389 97.367,197.771 102.316,197.817 102.449,184.073 
			111.856,197.91 116.764,197.957 116.969,176.573 112.02,176.526 		"/>
		<path fill="#342A7A" d="M79.107,171.636l-15.248,17.659l5.159,1.601l3.479-4.03l9.104,2.825l0.585,5.291l5.157,1.603l-2.57-23.187
			L79.107,171.636z M75.108,183.844l5.181-6.004l0.874,7.88L75.108,183.844z"/>
		<path fill="#342A7A" d="M36.597,149.146c-6.064,6.269,6.079,13.812,3.101,16.893c-1.64,1.693-4.314-0.023-5.646-1.311
			c-3.083-2.982-0.988-6.172-0.988-6.172l-3.534-3.421c0,0-5.159,5.319,1.976,12.222c5.539,5.359,9.652,4.293,11.748,2.123
			c6.059-6.261-5.988-13.908-3.1-16.893c1.271-1.313,3.05,0.085,4.43,1.418c2.88,2.787,0.967,4.987,0.967,4.987l3.562,3.445
			c0,0,4.556-4.736-1.983-11.062C41.939,146.354,38.01,147.688,36.597,149.146z"/>
		<path fill="#342A7A" d="M32.282,132.484c-3.584-6.135-9.572-8.166-15.642-4.618c-6.072,3.548-7.241,9.759-3.655,15.894
			s9.571,8.166,15.643,4.618C34.698,144.83,35.865,138.617,32.282,132.484z M26.129,144.105c-3.548,2.072-7.629,1.836-9.985-2.191
			c-2.352-4.031-0.557-7.7,2.993-9.775c3.551-2.074,7.629-1.838,9.985,2.191C31.478,138.359,29.681,142.029,26.129,144.105z"/>
		<polygon fill="#342A7A" points="21.933,107.807 20.636,103.031 0,108.64 4.516,125.253 8.049,124.291 4.832,112.457 		"/>
	</g>
	<g>
		<path fill="#231F20" d="M182.051,0H34.185v126.016l73.934,46.605l73.933-46.605V0z M177.974,123.766L108.118,167.8l-69.856-44.034
			V4.078h139.712V123.766z"/>
		<path fill="#231F20" d="M172.819,121.858V6.773H43.417v115.085l64.701,40.786L172.819,121.858z M45.773,9.13h124.69v111.43
			l-62.345,39.302L45.773,120.56V9.13z"/>
		<polygon fill="#231F20" points="180.452,179.013 182.545,179.013 182.545,185.339 183.305,185.339 183.305,179.013 
			185.512,179.013 185.512,178.252 180.452,178.252 		"/>
		<polygon fill="#231F20" points="191.379,178.252 189.559,184.02 187.745,178.252 186.526,178.252 186.526,185.339 
			187.282,185.339 187.282,179.319 189.182,185.339 189.94,185.339 191.84,179.319 191.84,185.339 192.598,185.339 192.598,178.252 
					"/>
	</g>
</g>
</svg>
