<svg enable-background="new 0 0 90.69 91.25" height="316.227766" viewBox="0 0 90.69 91.25" width="316.227766" xmlns="http://www.w3.org/2000/svg"><path d="m59.83 7.842 3.337-3.459-2.854-4.383-6.031.363-.764 4.664-3.538 6.069h-9.45l-3.619-6.673-.482-4.021-6.151-.28-2.815 4.222s2.212 2.091 2.896 2.935c.684.845 2.212 3.818 2.212 3.818h-6.735l2.406 5.487h-18.144l.205 6.535c.022.591.57 14.588 2.782 23.102 1.527 5.881 3.509 11.422 6.095 16.629l-1.755-1.492-.583 1.486-1.029-.004-1.784-1.492-.619 1.486-.958-.004-1.716-1.49-.48 1.484-1.063-.002-1.509-1.492-.686 1.484-1.166-.002-1.682-1.491-.687 1.484-3.463-.008 8.609 17.398h22.526c3.111 3.238 6.651 6.162 10.878 9.037l2.969 2.018 2.97-2.018c4.228-2.877 7.769-5.801 10.882-9.041h23.075l8.781-17.385h-3.636l-.687-1.418-1.681 1.418h-.96l-.617-1.418-1.682 1.418h-.995l-.65-1.418-1.715 1.418h-1.097l-.445-1.418-1.818 1.418h-1.098l-.445-1.418-1.706 1.418h-.738c2.618-5.248 4.62-10.654 6.16-16.586 2.19-8.431 3.184-22.343 3.226-22.932l.396-6.705h-5.664-12.172l2.303-5.487h-6.989zm-14.534 20.358h23.771c-.471 4.587-1.27 10.987-2.406 15.367-1.98 7.621-4.694 13.984-8.8 20.63-3.511 5.684-7.473 10.061-12.878 14.166-5.405-4.105-9.367-8.482-12.878-14.166-4.105-6.646-6.819-13.01-8.799-20.63-1.135-4.371-1.782-10.805-2.123-15.367z" fill="#8e8e91"/><path d="m59.146 7.187 2.731-2.954-2.149-3.09-4.7.27-.582 3.895-4.074 6.836h-10.207l-3.94-6.925-.716-3.764-4.745-.4-2.104 3.179 2.687 2.865 2.864 5.045h-6.807l2.407 5.322h-18.799l.171 5.621c.022.588.566 14.491 2.755 22.915 1.589 6.119 3.674 11.674 6.431 17.076l-.134.77h-1.195l-1.1-.979-.573.979h-1.721l-1.052-.979-.43.979h-1.769l-1.171-.979-.455.979h-1.743l-1.146-.98-.55.979h-1.648l-1.124-.979-.453.979h-2.487l2.318 4.465h19.341c.194.326.392.65.593.975 4.885 7.908 10.458 13.656 18.638 19.219l2.475 1.682 2.475-1.682c8.18-5.563 13.754-11.311 18.639-19.219.2-.324.397-.648.592-.973h20.078l2.318-4.441h-2.581l-.501-1.027-1.028 1.027h-1.744l-.525-1.027-1.195 1.027h-1.554l-.573-1.027-1.195 1.027h-1.699l-.74-1.027-.957 1.027h-1.672l-.479-1.027-.955 1.027h-1.291l-.534-1.32c2.625-5.238 4.628-10.631 6.166-16.553 2.17-8.355 3.157-22.187 3.198-22.772l.153-5.764h-4.543-13.635l2.198-5.322h-7.207zm-13.85 20.133h24.743c-.456 4.646-1.295 11.72-2.528 16.468-2.002 7.71-4.748 14.146-8.901 20.873-3.687 5.969-7.854 10.52-13.627 14.809-5.771-4.289-9.939-8.84-13.626-14.809-4.154-6.727-6.9-13.164-8.902-20.873-1.232-4.743-1.895-11.852-2.217-16.468z" fill="#231f20"/><path d="m61.829 13.085h-32.646l2.197 5.436h-19.455l.138 4.532c.021.584.562 14.395 2.726 22.725 2.181 8.395 5.304 15.717 9.83 23.045 4.816 7.797 10.314 13.465 18.385 18.953l1.979 1.346 1.979-1.346c8.071-5.488 13.569-11.156 18.385-18.953 4.526-7.328 7.649-14.65 9.83-23.045 2.149-8.275 3.131-22.03 3.172-22.612l-.087-4.646h-3.425-15.471zm-16.533 13.355h25.711c-.433 4.606-1.308 12.424-2.645 17.569-2.025 7.797-4.802 14.309-9.005 21.114-3.858 6.248-8.239 10.963-14.375 15.434-6.136-4.471-10.516-9.186-14.375-15.434-4.202-6.805-6.979-13.316-9.005-21.114-1.336-5.144-2.009-12.997-2.307-17.569z" fill="#233289"/><path d="m44.982 84.866c7.849-5.336 12.976-10.777 17.37-17.893s7.324-14.021 9.417-22.079 3.067-21.974 3.067-21.974h-29.54-29.716s.522 13.916 2.616 21.974c2.092 8.057 5.022 14.963 9.417 22.079s9.522 12.557 17.369 17.893z" fill="#231f20"/><path d="m59.946 14.131h-28.88l3.139 7.377h22.288z" fill="#8e8e91"/><path d="m58.063 21.508h16.846l1.57-1.727h-17.58z" fill="#8e8e91"/><path d="m26.357 67.915c-4.813-7.324-8.161-16.113-10.255-26.369-2.093-10.254-1.621-20.038-1.621-20.038h18.154l-.838-1.727h-19.042s-.105 12.452 1.883 21.869c1.988 9.418 6.174 19.567 10.673 26.264h1.046z" fill="#8e8e91"/><path d="m34.383 79.083c1.694 1.693 3.378 3.123 4.845 4.215 4.081 3.033 4.29 3.244 4.29 3.244-2.701-2.076-5.452-4.529-8.194-7.408z" fill="#8e8e91"/><path d="m55.847 79.163c-5.653 5.549-10.637 8.52-10.637 8.52v-1.408s4.096-2.25 9.144-7.121z" fill="#8e8e91"/><path d="m64.888 67.969c7.92-12.73 9.89-26.457 9.89-26.457s-2.992 13.787-11.264 26.458z" fill="#8e8e91"/><path d="m37.117 39.941-1.074-1.548-15.308 26.111h-17.878l1.886 3.77h17.789l16.474-28.333z" fill="#fff"/><path d="m37.117 39.941-1.074-1.548-15.308 26.111h-17.878l.898 1.528 17.969.09 15.412-26.181z" fill="#8e8e91"/><path d="m45.118 22.919-8.389 14.303.986 1.652h1.912l9.28-15.955z" fill="#fff"/><path d="m59.367 2.153h-3.503l-.629 3.504-3.79 6.464h3.737l3.288-5.655 2.335-2.336z" fill="#fff"/><path d="m55.864 2.153-.629 3.504-3.79 6.464h2.068l3.699-6.284 1.796-1.348.359-2.336z" fill="#233289"/><path d="m45.153 22.857-8.424 14.365.986 1.652h.049l9.429-16.017z" fill="#233289"/><path d="m53.479 39.941 1.075-1.548 15.307 26.111h17.877l-1.885 3.77h-17.79l-16.472-28.333z" fill="#fff"/><path d="m53.479 39.941 1.075-1.548 15.307 26.111h17.877l-.897 1.528-17.968.09-15.412-26.181z" fill="#8e8e91"/><path d="m45.478 22.919 8.388 14.303-.983 1.652h-1.912l-9.282-15.955z" fill="#fff"/><path d="m31.229 2.153h3.503l.63 3.504 3.788 6.464h-3.735l-3.288-5.655-2.335-2.336z" fill="#fff"/><path d="m34.732 2.153.63 3.504 3.788 6.464h-2.066l-3.698-6.284-1.798-1.348-.359-2.336z" fill="#233289"/><path d="m45.443 22.857 8.423 14.365-.983 1.652h-.05l-9.43-16.017z" fill="#233289"/><path d="m45.208 31.132-18.616 32.038s4.237 10.215 18.44 20.607c14.288-10.306 18.621-20.952 18.621-20.952z" fill="#233289"/><path d="m85.304 68.266h-81.443l5.393 10.678h72.181l5.287-10.678zm-1.417 1.76c-.866 1.748-3.178 6.416-3.545 7.158-1.068 0-68.946 0-70.006 0-.37-.732-2.728-5.402-3.613-7.158z" fill="#233289"/><path d="m5.116 69.145h80.012l-4.417 8.92h-71.092z" fill="#8e8e91"/><g fill="#233289"><path d="m4.516 64.381 1.985 3.899h1.498l-2.102-3.897z"/><path d="m7.817 64.381 1.987 3.901h1.498l-2.102-3.899z"/><path d="m11.111 64.381 1.986 3.901h1.498l-2.102-3.899z"/><path d="m14.345 64.381 1.986 3.901h1.498l-2.101-3.899z"/><path d="m17.758 64.381 1.986 3.901h1.498l-2.101-3.899z"/><path d="m86.024 64.381-1.984 3.899h-1.498l2.101-3.897z"/><path d="m82.724 64.381-1.987 3.901h-1.498l2.102-3.899z"/><path d="m79.43 64.381-1.987 3.901h-1.497l2.101-3.899z"/><path d="m76.195 64.381-1.985 3.901h-1.498l2.101-3.899z"/><path d="m72.782 64.381-1.986 3.901h-1.498l2.101-3.899z"/></g><path d="m43.38 20.453h-6.661s.507-.546.507-2.288-.78-2.392-.78-2.392h2.767s-.785 1.161-.751 2.46c.033 1.298.033 1.298.033 1.298h4.202l1.195-.648s.034.409-.068.888c-.102.478-.444.682-.444.682z" fill="#231f20"/><path d="m54.14 18.131c0-1.981.786-2.357.786-2.357h-9.326s1.025.581 1.025 2.426-.957 2.254-.957 2.254h2.118s-.171 0-.171-.307c0-.308 0-1.367 0-1.367h5.261v1.504s.137.17-.034.17h1.947c0-.001-.649-.342-.649-2.323zm-1.23-.41h-5.295v-.99h5.295z" fill="#231f20"/><path d="m16.228 76.772h-1.7s.704-.881.704-2.875-.646-2.875-.646-2.875h1.642v2.229h2.172l1.76-2.229h2.054l-.528.293-1.937 1.877h1.232s.586 1.584 1.115 2.348c.527.762 1.114 1.232 1.114 1.232h-1.818l-1.467-2.465h-3.697z" fill="#231f20"/><path d="m68.384 75.129-.06 1.643h7.568l-.529-1.174v-2.348h-5.689v-1.172h3.168s.411-.059 1.173.059c.763.117 1.115.352 1.115.352v-1.467h-7.451s.705 1.057.705 1.643 0 1.701 0 1.701h5.572v1.408h-3.637s-.704-.059-1.174-.176-.761-.469-.761-.469z" fill="#231f20"/><path d="m61.461 71.022h-7.686s.703.645.703 2.875c0 2.229-.763 2.875-.763 2.875h7.861v-3.109h-1.76s.47.586.587.938.059.939.059.939h-4.752v-3.52h3.462s.763 0 1.29.176c.528.176.998.469.998.469v-1.643z" fill="#231f20"/><path d="m39.695 71.022h-1.937s.938.82.938 2.816c0 1.994-.938 2.934-.938 2.934h1.937v-4.518s1.76-.293 3.402 1.113c1.643 1.408 1.878 3.404 1.878 3.404h1.877s-.821-.412-.821-2.816c0-2.406.821-2.934.821-2.934h-1.877v2.875s-.47-1.115-2.112-2.055c-1.642-.936-3.168-.819-3.168-.819z" fill="#231f20"/><path d="m31.599 71.022h-2.522s.646.645.646 2.758c0 2.111-.646 2.992-.646 2.992h2.522s-.646-.764-.646-2.992c0-2.231.646-2.758.646-2.758z" fill="#231f20"/><path d="m19.248 30.104 1.521 1.914s.691-.553 1.268-.991 1.66-.876 1.66-.876l-.576-1.153 1.037.323 1.199-.115.83-1.43-.691-1.13.461-.346.646.737.53-.821.438.591-.646.969.876 1.453 1.245.138.876-.415-.461 1.223s1.153.392 1.591.691c.438.3 1.291 1.198 1.291 1.198l1.591-1.868-1.429 8.231s-2.629.622-5.833.622c-3.205 0-5.81-.553-5.81-.553z" fill="#aeacb2"/><path d="m34.009 30.038c-.072-.033-.158-.016-.209.045 0 0-1.252 1.469-1.465 1.72-.26-.267-.836-.845-1.184-1.082-.354-.243-1.122-.531-1.462-.653.094-.25.397-1.053.397-1.053.007-.021.012-.041.012-.063 0-.048-.021-.096-.058-.129-.053-.05-.13-.061-.194-.03 0 0-.75.355-.831.394-.085-.009-.966-.107-1.108-.123-.075-.125-.68-1.125-.773-1.282.101-.152.583-.875.583-.875.021-.03.029-.064.029-.099 0-.036-.011-.073-.034-.104l-.438-.591c-.034-.046-.089-.073-.146-.071s-.111.032-.143.081c0 0-.257.398-.403.625-.179-.204-.492-.563-.492-.563-.061-.068-.164-.079-.238-.024l-.461.346c-.045.035-.07.087-.07.141 0 .032.009.063.026.093 0 0 .544.888.636 1.04-.086.149-.655 1.13-.731 1.26-.148.015-1.012.098-1.073.104-.063-.021-1.004-.313-1.004-.313-.067-.021-.141.001-.186.055-.028.032-.042.073-.042.113 0 .027.006.054.018.079 0 0 .37.74.492.984-.333.144-1.069.479-1.524.825 0 0-.912.713-1.133.886-.188-.235-1.412-1.776-1.412-1.776-.051-.064-.138-.085-.212-.052-.073.035-.114.114-.1.193l1.614 8.393c.014.069.067.124.137.139.026.006 2.66.557 5.847.557 3.188 0 5.847-.62 5.873-.627.068-.016.121-.071.133-.142l1.429-8.229c.011-.082-.029-.159-.1-.192zm-1.658 8.243c-.527.115-2.896.593-5.679.593-2.781 0-5.131-.424-5.66-.526-.039-.207-1.232-6.409-1.456-7.572.446.561 1.076 1.353 1.076 1.353.06.076.172.088.247.028l1.266-.989c.55-.419 1.608-.849 1.618-.853.046-.019.081-.056.1-.102.008-.02.011-.04.011-.062 0-.027-.006-.054-.019-.079 0 0-.221-.441-.392-.783.304.095.644.2.644.2.021.007.046.009.068.007l1.199-.115c.057-.006.107-.038.135-.087l.831-1.429c.016-.028.023-.059.023-.089 0-.031-.009-.063-.025-.092 0 0-.479-.782-.608-.993.08-.062.12-.09.202-.152.149.171.538.615.538.615.036.042.09.064.145.06.056-.004.105-.033.136-.08 0 0 .241-.373.392-.607.097.13.154.207.214.287-.109.164-.577.865-.577.865-.02.029-.029.063-.029.098 0 .031.009.063.025.091l.876 1.452c.028.048.076.078.131.084l1.245.139c.032.004.065-.002.095-.016 0 0 .243-.115.482-.229-.137.362-.308.814-.308.814-.007.02-.011.041-.011.063 0 .025.005.051.017.074.021.044.058.076.103.092.012.004 1.135.388 1.548.67.418.286 1.255 1.166 1.263 1.175.034.036.083.057.133.055.05-.001.097-.023.129-.062 0 0 .719-.844 1.173-1.377-.187 1.063-1.265 7.272-1.301 7.479z" fill="#aeacb2"/><path d="m24.043 30.635 2.029 4.565s-1.199-.023-2.075.185c-.876.207-1.752.576-1.752.576l-.276-2.028-.923-1.131s.622-.922 1.291-1.313 1.706-.854 1.706-.854z" fill="#233289"/><path d="m29.115 30.612-2.029 4.564s1.199-.023 2.075.185 1.752.576 1.752.576l.276-2.029.923-1.129s-.622-.923-1.291-1.313c-.669-.393-1.706-.854-1.706-.854z" fill="#233289"/><path d="m25.564 30.658.969 1.107 1.015-1.015-.992-1.175z" fill="#233289"/><path d="m63.818 25.411s-.414 1.347-.687 2.232c-.3-.3-1.501-1.502-1.501-1.502s0 1.725 0 2.173c-1.001-.675-5.148-3.469-5.148-3.469s2.761 4.119 3.427 5.113c-.386 0-2.086 0-2.086 0s1.22 1.181 1.498 1.45c-.957.27-4.226 1.193-4.226 1.193s3.235.951 4.197 1.234c-.254.229-1.538 1.39-1.538 1.39s1.856 0 2.339 0c-.674.984-3.476 5.076-3.476 5.076s3.983-2.685 5.004-3.372c-.034.409-.186 2.268-.186 2.268s1.367-1.367 1.716-1.716c.269.961 1.232 4.416 1.232 4.416s.878-3.431 1.126-4.4c.341.342 1.699 1.7 1.699 1.7s-.151-1.858-.186-2.268c1.021.688 5.004 3.372 5.004 3.372s-2.802-4.092-3.477-5.076h2.34s-1.284-1.16-1.539-1.39c.963-.283 4.198-1.234 4.198-1.234s-3.269-.924-4.226-1.193c.278-.27 1.626-1.574 1.626-1.574s-1.869.159-2.238.19c.705-1.063 3.423-5.161 3.423-5.161s-4.118 2.775-5.119 3.45c0-.448 0-2.173 0-2.173s-1.202 1.202-1.501 1.502c-.273-.886-1.192-3.872-1.192-3.872zm.066 3.381s.22-.718.439-1.43c.219.712.698 2.269.698 2.269s.815-.816.938-.939v1.606s1.615-1.088 2.358-1.589c-.533.804-1.693 2.554-1.693 2.554s1.342-.113 1.461-.124c-.034.033-.813.787-.813.787s1.677.475 2.466.697c-.793.232-2.493.733-2.493.733s.846.764.901.814c-.251 0-1.597 0-1.597 0s1.056 1.541 1.482 2.165c-.616-.415-2.238-1.508-2.238-1.508s.114 1.4.13 1.59c-.118-.117-.978-.977-.978-.977s-.421 1.646-.605 2.369c-.204-.729-.657-2.353-.657-2.353s-.843.843-.961.96c.016-.189.13-1.59.13-1.59s-1.621 1.093-2.239 1.508c.428-.624 1.483-2.165 1.483-2.165s-1.346 0-1.597 0c.056-.051.901-.814.901-.814s-1.701-.501-2.492-.733c.788-.223 2.466-.697 2.466-.697s-.842-.813-.943-.911h1.457s-1.063-1.586-1.533-2.286c.726.488 2.331 1.569 2.331 1.569s0-1.337 0-1.606c.123.123.939.939.939.939z" fill="#233289"/><path d="m64.323 25.566.946 3.071 1.219-1.22v1.89l3.739-2.521-2.558 3.859 1.85-.159-1.22 1.182 3.346.944-3.346.985 1.22 1.102h-1.967l2.478 3.62-3.621-2.44.158 1.929-1.338-1.338-.867 3.385-.944-3.385-1.338 1.338.157-1.929-3.621 2.44 2.48-3.62h-1.968l1.22-1.102-3.346-.985 3.346-.944-1.22-1.182h1.77l-2.479-3.7 3.739 2.521v-1.89l1.221 1.22z" fill="#aeacb2"/><path d="m61.345 32.633c0 1.651 1.346 2.997 2.998 2.997s2.998-1.346 2.998-2.997c0-1.653-1.346-2.998-2.998-2.998s-2.998 1.344-2.998 2.998zm1.233 0c0-.974.791-1.767 1.765-1.767s1.766.793 1.766 1.767c0 .973-.792 1.765-1.766 1.765s-1.765-.793-1.765-1.765z" fill="#5a5fa9"/><circle cx="64.343" cy="32.633" fill="#fff" r="2.381"/><path d="m38.79 44.595c-.047.103-.071.215-.071.327v2.743c-.064.055-.145.117-.215.164-.215.148-.344.393-.344.654v.559c0 .42.255.744.529.973v3.189c-.096.063-.204.133-.204.133-.385.23-.64.668-.664 1.143-.002.025-.002.049-.002.074 0 .203.046.393.13.559-.03.092-.055.195-.055.316 0 .547.435.816.884.967v7.568c-.728 0-2.916 0-2.916 0-.438 0-.793.355-.793.793v1.619c0 .436.354.791.793.791h3.767c.535 0 .938-.238 1.185-.498.313.283.742.439 1.258.439.765 0 1.558-.648 1.558-1.734 0-.139-.023-.268-.054-.393.125-.078.23-.186.297-.322.012-.021.029-.045.043-.07.282.229.629.301.942.18.131-.051.313-.16.441-.377.056-.008.11-.01.168-.027.148-.047.315-.15.456-.332.061-.004.123-.01.182-.031l.411-.146c.202-.072.362-.234.45-.43.047-.102.069-.213.069-.324 0-.102-.021-.203-.056-.297 0 0 0 0 .001-.002.002.008.008.023.008.023-.002-.01-.004-.021-.004-.031.02-.027.026-.055.043-.082.584.588 1.616.82 2.381.992.205.045.41.092.576.139-.082.057-.158.125-.215.209l-.647.971c-.088.133-.133.285-.133.439 0 .086.013.17.04.252l.118.354c.108.324.416.543.759.541l3.06-.029c.352-.004.659-.238.755-.574l.059-.207c.033-.117.094-.369.094-.658 0-.256-.052-.539-.209-.783.005-.023.006-.041.013-.066.084-.078.168-.154.168-.154.172-.156.26-.371.26-.586 0-.176-.059-.352-.177-.498l-1.118-1.383c-.258-.318-.726-.381-1.066-.152l.015-.012c-.042.027-.114.051-.142.047-.028-.008-.053-.029-.079-.047-.003-.141-.004-.197-.009-.396.097-.012.204-.023.336-.037.929-.098 2.034-.635 2.034-2.643 0-.008-.002-.018-.002-.025.644.15 1.35.057 1.609.012.397-.068.659-.424.636-.826s-.367-.725-.77-.746l.052.004s-.003-.002-.004-.002c-.001-.002-.039-.045-.054-.197-.002-.02-.003-.035-.003-.051 0-.109.043-.193.181-.432.209-.355.513-.875.513-1.746 0-.102-.004-.207-.013-.318-.139-1.732-1.494-2.35-2.613-2.35-.055 0-.11.006-.166.01.003-.006.009-.02.011-.021.042-.1.064-.205.064-.313 0-.01-.001-.018-.001-.025l-.089-2.768c-.003-.102-.039-.207-.091-.305.088-.131.15-.277.15-.436 0-.07-.01-.141-.028-.211l-.147-.529c-.022-.08-.057-.156-.103-.225-.104-.158-1.029-1.553-1.543-2.066-.681-.681-1.34-.82-2.119-.82-.83 0-1.896.49-2.015.546-.039.019-.077.04-.111.064l-1.325.913c-.107.074-.191.172-.25.281-.065.037-.215.119-.215.119l-.544.285c-.112.061-.209.146-.282.252-.193.279-.291.574-.291.846 0 .143.029.277.082.404-.038.129-.078.289-.078.494 0 .297.109.561.3.754-.078.16-.124.361-.124.617v.053c-.446.076-.848.27-1.151.461-.423-.346-.996-.811-1.21-.965-.241-.176-.241-.176-.266-.436-.063-.656-.256-.979-.705-1.209 0-.004.002-.008.002-.01v-2.62c0-.619-.543-1.086-1.263-1.086-.573-.002-.969.421-1.134.786zm10.887 3.62c.251-.023.812-.182.812-1.127 0-.049-.002-.1-.005-.152-.04-.688-.318-1.055-.573-1.25.169.049.3.139.459.297.279.279.884 1.137 1.257 1.693-.164.199-.285.42-.285.672 0 .066.008.137.026.209.019.078.07.271.313.502.016.516.061 1.918.07 2.201-.125.258-.363.689-.632.975-.483.512-1.091.881-1.655 1.023-.039-.053-.071-.109-.124-.152-.123-.1-.568-.418-1.114-.309-.336.068-.617.285-.791.609-.167.314-.227.748-.227 1.178 0 .604.117 1.203.21 1.463.233.654 1.025 1.107 1.263 1.23.074.039.153.064.235.078 0 0 .576.098.759.127.08.053.212.174.229.439l.15 1.766c.007.09.035.172.07.25-.06.07-.111.152-.147.254-.03.086-.045.178-.045.268 0 .006.03 1.4.03 1.4.002.131.043.258.108.373-.104-.025-.201-.051-.314-.076-.433-.096-1.438-.322-1.596-.559-.023-.838-.128-1.645-.715-1.895-.107-.049-.226-.07-.342-.064l-.766.029c-.227.008-.439.115-.582.289-.074.092-.444.574-.444 1.209 0 .332.136.613.236.818 0 0 .018.039.035.078-.034.064-.061.129-.084.193-.047.004-.095.006-.141.016-.13.029-.381.125-.562.402-.126.004-.255.031-.382.092-.055.027-.135.078-.217.152-.131-.029-.268-.053-.418-.041.181-.174.617-.592.617-.592.042-.041.067-.074.099-.121.144-.215.238-.496.238-.795 0-.262-.074-.537-.256-.787l-.062-.084c-.202-.273-.317-.441-.317-.656 0-.172.149-.592.308-.943.165-.111.378-.258.378-.258.021-.014.041-.029.06-.045.21-.176.339-.445.343-.727 0-.004 0-.01 0-.016 0-.221-.073-.541-.412-.842-.189-.168-.428-.475-.566-.729-.149-.275-.41-.461-.714-.508-.314-.051-.603.055-.837.193-.104-.096-.23-.172-.398-.209-.22-.049-.397-.002-.548.072-.232-.229-.55-.381-.643-.422-.166-.074-.351-.09-.525-.043 0 0-.141.039-.27.072-.104-.217-.299-.387-.548-.436-.033-.006-.068-.016-.104-.023-.005-.166-.056-.305-.12-.418.188-.121.434-.281.434-.281.225-.146.338-.381.338-.648v-4.029c0-.283-.156-.549-.404-.689-.03-.018-.063-.041-.096-.063.07-.063.133-.119.186-.176.064.043.122.088.205.123 0 0 .075.031.144.059.001.006.004.027.004.027.086.898.461 1.24.907 1.563.253.186 1.251 1 1.615 1.299.303.25.745.236 1.036-.025.174-.158.646-.488.998-.5.422-.018.985.26 1.149.357.055.033.116.061.178.078.373.113.901.203 1.295-.02l.44-.574c.045-.184.091-.41.091-.643 0-.244-.051-.5-.201-.725-.079-.121-.193-.236-.394-.332.076-.156.116-.332.116-.523 0-.021-.001-.045-.002-.066-.016-.324-.133-.604-.336-.814.339-.117.602-.338.78-.545.227-.006.445-.006.607.004.192.396.537.849 1.086.8zm-8.579 9.289c.123.082.262.148.438.166.092.01.18-.014.268-.029.211.221.454.279.58.291.297.031.576-.088.813-.316.034.043.068.086.104.129-.095.072-.176.164-.229.271-.13.26-.555 1.16-.555 1.826 0 .691.32 1.174.565 1.51-.208.201-.524.506-.524.506-.303.287-.376.285-.684.283l-.125-.002c-.269 0-.475.063-.649.143-.002-2.262-.002-3.713-.002-4.778zm8.54-2.652c.173-.035.34-.08.501-.133 0 .004-.002.01-.002.014-.001.053-.002.102-.002.148 0 .469.051.83.141 1.131-.022-.01-.048-.023-.069-.031-.048-.018-.098-.031-.147-.041 0 0-.541-.09-.741-.121-.181-.109-.36-.248-.415-.326-.042-.129-.074-.336-.094-.557.266.02.56-.033.828-.084zm3.006-.725c-.158.309-.271.639-.35.961 0-.004-.001-.01-.001-.016 0-.352.147-.709.231-.885.029-.02.07-.04.12-.06zm1.104 1.875c0-.021.001-.045.002-.066.022-.475.24-1.092.484-1.373.101-.115.173-.24.228-.369.001.01.002.023.003.031.006.074.009.143.009.205 0 .43-.128.646-.296.936-.143.244-.316.561-.373.977-.034-.106-.057-.218-.057-.341zm-2.265 1.815c-.001-.018-.006-.031-.007-.049.246.357.287.598.305.807-.022.029-.08.088-.194.168-.007.002-.018.004-.024.006-.041-.461-.08-.932-.08-.932zm-4.505 4.98s.001.002.002.004h-.001c-.001-.002 0-.004-.001-.004zm-2.027.602c.05.055.091.113.124.18-.031-.063-.079-.121-.124-.18zm-2.876.322c-.018.004-.031.014-.048.018-.003-.002-.015-.014-.015-.014s-.001 0-.003-.002c.023 0 .045 0 .066-.002zm2.485.457c-.026-.021-.053-.045-.077-.068.026.025.057.047.086.072-.004-.002-.006-.004-.009-.004zm-.903.108c.018.035.043.063.064.094-.021-.024-.043-.053-.064-.094zm-1.763.918c.001 0 .002.002.002.002-.013.006-.021.01-.043.016.014-.005.027-.013.041-.018zm-2.619.343c.082 0 .161-.016.238-.039v.074c-.17 0-1.91 0-2.86 0 0-.018 0-.018 0-.035zm2.616-.089c0-.008 0-.016 0-.025.005-.105.021-.162.037-.201.055.041.116.098.116.143 0 .082-.016.123-.029.145-.057-.004-.098-.008-.121-.016-.001-.015-.003-.027-.003-.046zm10.039-2.358c.147.182.181.223.341.422-.003.008-.012.014-.016.021-.027.066-.067.18-.103.313-.089-.217-.229-.479-.439-.732.074-.004.148-.012.217-.024zm.205 1.858c.011-.016.015-.031.025-.045.012.029.027.059.042.088-.046 0-.072 0-.123.002.017-.018.041-.026.056-.045zm-2.929-17.969c-.032.012-.062.016-.09.016.03-.008.061-.006.09-.016z" fill="#231f20"/><path d="m40.122 50.29c-.327.104-.55.408-.55.754v2.736c0 .416.191.998.732 1.268.447.225.991.09 1.566-.055.16-.039.38-.094.463-.1.574-.041 1.097-.432 1.27-.951.158-.475.011-.969-.396-1.32-.324-.281-.72-.561-1.195-.529-.315-.539-.875-1.33-1.003-1.51-.2-.28-.559-.399-.887-.293z" fill="#231f20"/><path d="m44.337 55.958 1.383-.942 2.854 2.973-1.589.5z" fill="#231f20"/><path d="m54.577 56.723c-.088-.912.795-1.09.677-2.561-.118-1.473-1.354-1.619-1.823-1.619-.472 0-1.148.266-1.148.266s-1.325.559-1.354 1.941c-.029 1.383.383 1.561.971 2.266.589.707.647 1.178.677 1.561s-.323.676-.588.854c-.266.176-1.147.176-1.147.176s-.089-.854-.147-1.736c-.06-.883-.766-1.146-.766-1.146l-.883-.148s-.735-.383-.883-.793c-.146-.412-.264-1.561-.029-2.002s.706-.059.706-.059l.029.383s-.294.146.618-.029c.912-.178 1.707-.766 2.207-1.295.501-.531.854-1.354.854-1.354l-.088-2.766s-.295-.178-.324-.295c-.029-.119.383-.471.383-.471l-.147-.531s-.971-1.471-1.441-1.941c-.471-.471-.883-.589-1.56-.589s-1.678.472-1.678.472l-1.324.912 2.56.029s.707-.266.766.734c.059 1.002-.471.031-.5-.205s-1.619-.146-1.619-.146-.323.617-.823.617-.647-.734-.647-.734l-.265.146-.56.295s-.265.381-.088.559c.177.176-.059.383-.059.734 0 .354.382.295.588.207s1.001-.266 1.03.354c.028.617-.854.354-.854.354-.647.059-.589.205-.589.559s.824.205.824.205.912.029 1.03.207c.117.176.059.5 0 .734-.059.236-.735.029-.735.029s-.825-.5-1.59-.471c-.766.029-1.501.707-1.501.707s-1.324-1.09-1.647-1.324c-.324-.236-.53-.383-.588-1-.06-.619-.147-.529-.619-.736-.471-.205-.088-.559-.088-.559s0-2.443 0-2.62c0-.176-.206-.294-.471-.294s-.412.323-.412.323v3.002c0 .176-.559.559-.559.559s0 .295 0 .559c0 .266.529.559.529.559v4.033s-.294.205-.589.383c-.294.176-.383.676-.146.854.235.176-.059.381-.059.559 0 .176.882.354.882.354s0 7.855 0 8.297-.294.678-.294.678h-3.413v1.619h3.767s.677-.324.677-.324v-9.805l.441-.117s.265.117.411.266c.147.146.354.676.619.412.264-.266.323-.5.5.088s.529-.059.529-.059.529-.5.706-.176c.177.322.471.705.735.941.266.234.089.383.089.383l-.559.383s-.472.939-.472 1.471c0 .529.295.883.53 1.205.234.324 0 .678 0 .678s-.147.146-.736.707c-.588.559-.912.5-1.354.5s-.529.234-.941.559-.324.824-.324.824l.972-.029.177.176s-.5.146-.529.941c-.03.795.588.912.971.912s.765-.354.765-.941-.588-.883-.588-.883l.912-.176s.294-.619.677-.648.529.266.529.266.294.322.294-.178.383-.205.383-.205.265.266.354-.266c.088-.529.441-.029.441-.029l.412-.146s-.177-.412.088-.766c.265-.352-.235-.795-.235-1.176 0-.383.265-.707.265-.707l.766-.029s.206.088.234 1.207c.03 1.117 2.385 1.207 3.179 1.559.795.354.972 1.266.972 1.266l-1.089.029-.648.971.118.354 3.061-.029.059-.205s.177-.619-.059-.854c-.235-.236.03-.883.03-.883l.323-.295-1.118-1.383s-.383.266-.795.146c-.412-.117-.647-.471-.647-.471l-.029-1.383s-.06-.059 1.06-.176c1.117-.119 1.323-.941 1.323-1.855 0-.912-.765-1.617-1.323-2.412-.56-.795-.147-1.824.059-2.236s1.089-.59 1.383-.529c.295.059.795.352.412.793-.382.443-.646 1.236-.677 1.855-.029.617.206 1.176.706 1.559.501.383 1.707.178 1.707.178s-.71-.002-.799-.914zm-12.3-2.619c-.412.029-1.324.383-1.619.234-.294-.146-.294-.559-.294-.559v-2.736s.883 1.236 1.089 1.678c.206.439.147.588.354.322.205-.264.441-.205.883.178.441.381-.001.854-.413.883zm2.884 2.176.206-.381.323-.236.323.561zm.81.795.205-.383.324-.234.323.559zm.735.736.206-.383.323-.234.323.559z" fill="#8e8e91"/></svg>